<?xml version="1.0" standalone="no"?>
<!DOCTYPE svg PUBLIC "-//W3C//DTD SVG 20010904//EN"
 "http://www.w3.org/TR/2001/REC-SVG-20010904/DTD/svg10.dtd">
<svg version="1.0" xmlns="http://www.w3.org/2000/svg"
 width="300.000000pt" height="300.000000pt" viewBox="0 0 300.000000 300.000000"
 preserveAspectRatio="xMidYMid meet">
<metadata>
Created by potrace 1.10, written by Peter Selinger 2001-2011
</metadata>
<g transform="translate(0.000000,300.000000) scale(0.100000,-0.100000)"
fill="#000000" stroke="none">
<path d="M1406 2957 c-10 -48 -10 -60 -2 -84 6 -19 4 -23 -13 -23 -14 0 -21 8
-24 28 -4 25 -4 25 -6 -5 -1 -31 1 -33 34 -33 19 0 35 -4 35 -10 0 -5 -4 -10
-10 -10 -5 0 -10 -4 -10 -8 0 -4 34 -9 75 -10 49 -2 75 1 75 8 0 6 -6 10 -12
9 -7 -1 -20 -1 -28 1 -25 3 21 19 58 19 18 1 31 5 28 9 -3 5 -19 7 -36 4 -18
-2 -30 0 -30 7 0 6 5 11 11 11 6 0 9 6 6 14 -3 7 -1 18 4 23 8 8 -20 82 -32
83 -3 0 -11 -11 -17 -25 -10 -21 -9 -25 3 -25 27 0 16 -94 -12 -104 -11 -4
-13 -2 -9 9 4 10 -1 15 -14 15 -12 0 -17 -5 -14 -14 3 -8 1 -17 -4 -20 -14 -9
-32 49 -32 105 0 56 -15 73 -24 26z"/>
<path d="M1245 2910 c-8 -13 65 -13 85 0 11 7 2 10 -32 10 -26 0 -50 -4 -53
-10z"/>
<path d="M1600 2911 c0 -9 108 -21 124 -13 4 3 2 8 -5 13 -19 12 -119 11 -119
0z"/>
<path d="M1130 2885 c-7 -8 -18 -15 -25 -15 -7 0 -24 -9 -39 -21 -14 -11 -30
-17 -36 -14 -6 4 -10 -6 -10 -23 0 -43 -21 -57 -65 -42 -19 6 -35 16 -35 22 0
16 32 37 57 38 16 0 20 5 16 20 -5 19 -6 19 -52 -5 -25 -13 -66 -33 -91 -44
-25 -12 -58 -32 -75 -46 l-30 -25 33 6 c18 4 32 2 32 -3 0 -11 -35 -44 -73
-68 -24 -16 -30 -16 -37 -4 -8 11 -12 11 -22 1 -10 -10 -10 -14 1 -21 9 -6 10
-10 2 -16 -7 -4 -18 -1 -26 5 -11 9 -18 9 -30 -3 -8 -8 -20 -17 -27 -20 -7 -2
-10 -7 -6 -11 3 -4 17 -1 30 8 15 10 28 12 38 6 15 -9 74 19 97 47 13 16 28 0
17 -18 -4 -7 12 -1 34 11 47 27 50 35 22 70 -11 14 -20 28 -20 31 0 3 18 14
39 24 40 18 66 13 57 -10 -2 -7 4 -21 14 -30 18 -16 21 -16 53 4 19 11 48 21
64 21 39 0 43 6 31 42 -8 24 -8 32 3 39 22 14 66 10 73 -6 4 -11 21 -15 60
-15 30 0 57 3 59 8 3 4 0 18 -5 32 l-10 25 -9 -22 c-11 -30 -23 -29 -48 3
l-21 27 6 -33 c6 -26 4 -32 -7 -28 -8 3 -14 16 -14 31 0 33 -9 41 -25 22z"/>
<path d="M1790 2884 c0 -5 7 -17 14 -26 11 -15 17 -16 39 -5 33 15 35 27 3 27
-13 0 -31 3 -40 6 -9 3 -16 2 -16 -2z"/>
<path d="M1300 2861 c16 -32 30 -34 30 -7 0 19 -5 26 -20 26 -17 0 -19 -3 -10
-19z"/>
<path d="M1720 2866 c0 -8 -3 -21 -6 -30 -5 -13 1 -16 30 -16 35 0 45 12 28
36 -12 20 -52 27 -52 10z"/>
<path d="M1874 2810 c1 -37 4 -43 33 -55 21 -9 35 -10 39 -4 3 6 -3 13 -15 16
-24 6 -25 7 -10 35 9 16 8 19 -1 13 -8 -5 -19 1 -30 14 -16 22 -16 22 -16 -19z"/>
<path d="M2030 2811 c6 -12 8 -31 5 -41 -9 -29 -42 -25 -49 5 -4 14 -11 25
-17 25 -7 0 -9 -9 -5 -22 3 -13 6 -26 6 -30 0 -8 60 -42 64 -36 1 2 6 16 11
32 10 30 39 55 51 44 7 -8 -40 -93 -57 -103 -5 -4 -21 1 -36 10 -14 9 -36 15
-49 12 -13 -2 -24 0 -24 4 0 5 -27 22 -60 37 -43 19 -60 33 -60 47 -1 17 -3
17 -11 -5 -8 -20 -12 -22 -19 -10 -7 12 -12 12 -22 2 -16 -16 -41 -15 -35 2 4
10 -10 17 -50 25 -69 14 -83 14 -83 1 0 -5 16 -10 35 -10 19 0 35 -5 35 -11 0
-6 -12 -9 -27 -8 -33 2 -82 -9 -101 -24 -9 -7 -16 -7 -24 1 -7 7 -19 7 -36 1
-17 -7 -29 -6 -36 1 -5 5 -19 10 -30 10 -12 0 -30 7 -40 15 -23 18 -85 19
-139 4 -28 -7 -42 -7 -52 1 -10 8 -15 8 -20 0 -4 -6 -31 -22 -61 -35 -30 -13
-54 -29 -54 -34 0 -6 -7 -11 -16 -11 -8 0 -12 5 -9 10 3 6 1 10 -4 10 -6 0
-16 -9 -23 -20 -7 -11 -23 -20 -35 -20 -28 0 -100 -37 -111 -57 -5 -8 -12 -14
-16 -13 -15 4 -66 -23 -66 -35 0 -7 -17 -21 -37 -30 -21 -10 -42 -24 -46 -31
-4 -8 -13 -14 -19 -14 -6 0 -30 -18 -54 -40 -49 -45 -80 -54 -43 -13 13 16 30
32 37 36 6 4 12 13 12 18 0 6 -5 7 -12 3 -8 -5 -9 -2 -5 10 9 22 -15 31 -43
16 -20 -11 -21 -13 -5 -30 20 -22 12 -40 -34 -84 -29 -28 -32 -28 -49 -13 -20
19 -42 22 -42 8 0 -6 5 -13 10 -16 16 -10 0 -27 -21 -22 -10 3 -21 2 -24 -3
-9 -15 38 -19 52 -4 21 20 29 9 12 -14 -8 -11 -36 -51 -63 -91 -27 -39 -52
-71 -56 -71 -4 0 -13 7 -20 15 -7 8 -21 15 -31 15 -21 0 -34 16 -19 25 5 3 23
-1 41 -10 17 -9 32 -15 33 -13 36 46 66 101 61 109 -9 14 -34 -21 -28 -38 3
-7 -1 -13 -8 -13 -7 0 -23 -9 -35 -21 l-22 -21 -12 22 c-14 27 -32 14 -62 -44
-11 -22 -29 -52 -39 -66 -24 -34 -72 -192 -56 -187 7 2 17 18 22 35 14 42 21
47 40 29 20 -21 19 -38 -2 -30 -16 6 -16 5 -5 -10 17 -20 6 -40 -19 -34 -11 3
-19 1 -19 -4 0 -5 7 -9 16 -9 9 0 14 -7 12 -17 -2 -11 -11 -17 -21 -15 -9 2
-17 -2 -17 -8 0 -5 1 -10 3 -10 1 0 17 -4 35 -9 35 -10 35 -9 14 48 -4 10 -1
13 10 8 21 -8 31 3 17 19 -8 9 -5 15 10 24 33 17 26 44 -14 59 -38 13 -48 41
-15 41 11 0 20 5 20 10 0 6 -7 10 -15 10 -18 0 -19 12 -4 27 9 9 20 8 43 -4
52 -26 56 -32 45 -61 -7 -18 -7 -28 0 -30 16 -5 13 -22 -3 -22 -10 0 -14 -10
-14 -31 1 -17 -5 -34 -12 -39 -16 -10 -4 -30 17 -30 9 0 13 6 9 15 -7 18 3 47
14 40 13 -8 23 56 11 68 -17 17 -13 31 4 17 12 -10 18 -7 32 20 121 220 245
361 419 475 62 41 120 75 128 75 20 0 30 17 14 23 -10 4 -9 8 2 16 10 7 17 6
22 -2 8 -13 2 -14 125 37 66 28 227 66 281 66 28 0 33 -4 39 -30 6 -32 20 -39
29 -15 7 17 34 21 34 4 0 -5 5 -7 12 -3 8 5 9 -5 5 -34 -3 -23 -1 -42 4 -42 5
0 9 5 9 10 0 6 7 10 15 10 17 0 20 25 5 35 -15 10 -12 35 5 35 8 0 15 -5 15
-12 0 -9 3 -9 12 0 7 7 16 12 20 12 13 0 9 -38 -4 -42 -18 -6 -1 -38 21 -38
27 0 34 15 16 33 -20 21 -21 44 -1 28 11 -9 16 -9 21 0 4 6 2 15 -4 19 -9 5
-8 10 4 20 19 16 102 8 212 -21 89 -22 131 -45 114 -62 -8 -8 -20 -6 -45 5
-35 17 -46 15 -46 -10 0 -10 7 -12 24 -8 14 3 28 2 31 -4 3 -5 19 -10 36 -10
23 0 29 -4 29 -21 0 -18 2 -19 15 -9 21 18 19 27 -10 34 -27 7 -33 23 -12 32
17 6 140 -54 239 -118 44 -28 85 -48 93 -44 21 8 19 26 -3 26 -11 0 -27 9 -37
20 -10 11 -23 20 -28 20 -5 0 -34 16 -64 36 -29 19 -57 33 -62 30 -5 -3 -14 0
-20 8 -9 10 -7 17 4 26 9 8 22 28 30 47 9 22 21 33 34 33 26 0 26 -2 -4 -50
l-25 -40 32 -20 c36 -22 54 -25 63 -11 3 6 29 -15 58 -45 29 -29 58 -54 64
-54 23 0 21 39 -3 61 -28 26 -34 7 -7 -23 9 -10 12 -18 6 -18 -17 0 -46 38
-40 53 3 9 -7 18 -30 26 -25 9 -33 17 -28 29 5 13 3 13 -14 -2 -22 -20 -52
-18 -59 3 -3 10 0 12 13 8 24 -10 39 3 20 17 -22 16 -9 49 16 41 33 -11 20 9
-24 37 -24 15 -59 30 -78 33 -18 3 -42 8 -52 11 -16 5 -17 3 -7 -15z m-1530
-447 c0 -6 -48 -71 -68 -93 -7 -7 -24 -35 -37 -61 -14 -27 -29 -51 -34 -54 -5
-4 -12 -20 -16 -36 -7 -31 -19 -38 -31 -19 -3 6 -1 16 5 22 6 6 11 21 11 34 0
13 4 23 10 23 5 0 17 15 26 33 40 78 134 185 134 151z m-214 -160 c28 -13 33
-21 28 -38 -8 -26 -24 -45 -24 -28 0 7 -8 12 -17 12 -32 0 -46 16 -39 44 8 31
8 31 52 10z"/>
<path d="M860 2739 c0 -9 9 -24 20 -34 16 -14 23 -16 32 -7 9 9 8 12 -4 12 -9
0 -24 10 -32 22 -12 16 -16 18 -16 7z"/>
<path d="M1620 2735 c-10 -12 -9 -16 5 -21 23 -9 40 10 22 25 -11 9 -17 8 -27
-4z"/>
<path d="M705 2715 c-17 -13 -25 -24 -19 -25 15 0 61 37 54 44 -3 3 -19 -6
-35 -19z"/>
<path d="M1674 2715 c-7 -17 2 -45 13 -45 17 0 37 19 29 27 -5 4 -11 2 -13 -5
-3 -6 -9 -9 -15 -6 -5 3 -2 14 8 25 16 18 16 19 0 19 -9 0 -19 -7 -22 -15z"/>
<path d="M2212 2718 c3 -7 14 -14 26 -16 12 -2 22 -8 22 -14 0 -6 3 -9 6 -6 3
4 1 16 -6 27 -11 22 -55 30 -48 9z"/>
<path d="M1135 2696 c-11 -8 -16 -20 -12 -29 4 -12 -2 -21 -20 -30 -32 -17
-15 -31 21 -17 22 8 25 14 20 40 -7 31 10 42 33 19 7 -7 12 -4 16 10 4 17 0
21 -17 21 -12 0 -31 -6 -41 -14z"/>
<path d="M1772 2668 c3 -41 28 -68 28 -30 0 11 -6 23 -12 25 -8 3 -7 6 4 6 23
1 34 21 17 32 -30 19 -40 10 -37 -33z"/>
<path d="M1380 2680 c0 -26 11 -30 36 -13 28 18 24 28 -12 28 -16 1 -24 -5
-24 -15z"/>
<path d="M1612 2674 c2 -11 11 -20 22 -22 13 -3 17 1 14 14 -2 11 -11 20 -22
22 -13 3 -17 -1 -14 -14z"/>
<path d="M1027 2667 c-3 -8 -1 -20 4 -28 11 -19 34 3 26 25 -8 20 -23 21 -30
3z"/>
<path d="M1717 2663 c-13 -12 -7 -23 13 -23 11 0 20 7 20 15 0 15 -21 21 -33
8z"/>
<path d="M2320 2652 c0 -4 14 -21 30 -37 31 -30 38 -28 20 5 -11 21 -50 46
-50 32z"/>
<path d="M1259 2634 c-99 -17 -201 -54 -320 -115 -104 -54 -142 -85 -120 -98
12 -8 114 45 133 69 5 6 3 6 -4 0 -15 -12 -28 -13 -28 -2 0 14 47 31 69 25 17
-4 20 -2 15 11 -4 10 0 18 10 22 23 9 34 -5 16 -17 -22 -15 26 -1 75 22 22 11
32 17 22 14 -11 -3 -31 -7 -45 -10 -21 -4 -18 0 13 15 26 14 53 19 77 16 24
-2 38 1 42 9 2 7 36 18 75 25 39 6 73 16 77 21 7 12 -14 10 -107 -7z m-349
-159 c0 -6 -56 -35 -67 -35 -13 1 41 40 55 40 6 0 12 -2 12 -5z"/>
<path d="M1493 2640 c-118 -7 -132 -20 -21 -20 47 0 98 -2 114 -4 16 -2 24 -1
17 1 -6 2 -13 10 -15 16 -2 9 -29 11 -95 7z"/>
<path d="M1654 2631 c3 -4 23 -11 44 -15 22 -3 45 -12 52 -20 8 -10 22 -13 41
-9 22 4 29 2 29 -11 0 -19 20 -22 20 -3 0 6 5 4 11 -5 5 -10 19 -18 29 -18 11
0 35 -9 55 -20 20 -11 43 -20 51 -20 18 0 82 -42 172 -113 59 -47 76 -77 51
-92 -6 -4 -9 -27 -7 -54 2 -31 -1 -46 -9 -47 -27 -3 -27 -5 -9 -19 25 -19 36
-19 36 -1 0 22 19 30 26 11 4 -9 -1 -24 -11 -35 -17 -18 -16 -21 16 -53 43
-43 50 -53 74 -104 20 -41 20 -41 46 -26 l27 16 -32 53 c-17 29 -42 67 -56 84
-46 59 -61 88 -50 95 15 9 25 0 61 -55 18 -28 36 -50 41 -50 4 0 8 -7 8 -15 0
-8 3 -15 8 -15 4 0 16 -19 27 -41 10 -23 25 -44 32 -46 8 -3 11 -13 8 -23 -3
-11 0 -20 10 -23 8 -4 12 -13 9 -20 -3 -9 3 -16 15 -20 12 -3 21 -3 21 0 0 10
-71 134 -116 203 -23 36 -67 92 -98 125 -31 33 -56 63 -56 68 0 19 23 2 75
-55 113 -127 193 -268 246 -438 31 -100 33 -113 33 -265 1 -164 -1 -181 -30
-320 -18 -88 -29 -108 -53 -100 -12 3 -20 -9 -35 -53 -10 -31 -29 -71 -42 -89
-29 -39 -30 -43 -4 -43 25 0 25 -7 -6 -50 -13 -19 -35 -51 -49 -71 -43 -65
-131 -153 -144 -145 -8 5 6 26 46 67 60 62 78 87 70 96 -9 9 -25 -6 -79 -70
-28 -34 -54 -62 -58 -62 -4 0 -23 -17 -42 -38 -19 -20 -40 -37 -46 -37 -5 0
-12 -7 -16 -15 -3 -8 -15 -15 -26 -15 -11 0 -20 -5 -20 -10 0 -6 -11 -15 -25
-20 -14 -5 -25 -14 -25 -19 0 -5 -9 -11 -19 -14 -15 -3 -25 6 -45 43 -27 50
-33 80 -16 80 6 0 10 4 10 10 0 5 -6 7 -13 4 -8 -3 -19 7 -26 22 -10 22 -9 30
5 45 21 24 35 24 27 2 -5 -14 -1 -13 19 5 14 12 45 33 69 45 24 12 48 31 54
42 5 11 21 31 34 44 l24 24 29 -32 c31 -33 51 -41 41 -15 -3 9 2 21 13 28 25
18 100 164 89 174 -4 4 -10 1 -12 -6 -8 -21 -103 -161 -114 -168 -17 -10 -23
4 -12 28 6 13 36 58 67 101 61 86 104 197 76 197 -5 0 -10 -6 -10 -12 0 -7 -7
-26 -15 -42 -8 -15 -13 -32 -10 -37 3 -4 -3 -17 -15 -29 -11 -11 -18 -20 -15
-20 3 0 -1 -13 -10 -30 -17 -34 -57 -60 -63 -42 -7 21 -2 27 21 27 13 0 23 7
25 17 3 13 -1 16 -14 11 -18 -7 -17 5 1 50 6 14 2 17 -24 17 -33 0 -42 -14
-16 -24 14 -5 14 -9 1 -35 -9 -16 -29 -43 -46 -59 -16 -17 -30 -36 -30 -42 0
-8 -10 -9 -30 -5 -25 6 -31 3 -41 -18 -11 -24 -59 -44 -59 -26 0 5 5 9 10 9
21 0 9 26 -25 53 -20 16 -32 21 -29 12 7 -18 -7 -20 -24 -3 -18 18 -15 33 14
67 29 35 59 40 73 13 5 -10 25 -24 45 -32 23 -9 36 -20 36 -32 0 -10 4 -18 9
-18 17 0 22 19 10 37 -9 15 -6 26 12 57 21 35 24 37 35 21 14 -19 9 -39 -7
-30 -5 3 -6 -1 -3 -9 3 -9 1 -16 -6 -16 -6 0 -8 -5 -4 -11 4 -7 14 -4 27 10
19 18 20 25 10 52 -11 27 -9 38 13 80 23 46 45 61 59 39 3 -5 -1 -20 -9 -32
-18 -25 -20 -38 -7 -38 5 0 21 24 34 53 33 70 41 97 28 97 -6 0 -11 -6 -11
-13 0 -21 -37 -51 -45 -37 -8 13 13 128 24 135 4 2 13 -1 21 -6 12 -8 12 -12
3 -16 -13 -5 -18 -33 -7 -33 4 0 13 8 21 18 13 16 14 15 10 -5 -3 -13 -2 -25
3 -28 4 -3 6 -26 4 -52 l-4 -48 16 48 c14 43 18 48 42 45 24 -3 27 -7 26 -41
-2 -56 13 -31 20 33 4 37 3 49 -3 35 -7 -14 -10 14 -10 89 -1 94 -3 107 -17
102 -9 -3 -22 -6 -30 -6 -9 0 -12 -5 -8 -11 3 -6 15 -8 26 -6 14 4 18 1 16
-11 -3 -11 -12 -16 -26 -15 -23 3 -31 -20 -12 -32 6 -3 10 -1 10 4 0 6 7 11
15 11 9 0 15 -9 15 -25 0 -22 -4 -25 -36 -25 l-37 0 5 51 c3 29 3 61 -1 73 -3
12 -8 -11 -11 -54 l-5 -74 -42 -1 -43 -1 -2 40 c-3 91 0 140 11 144 7 2 12
-11 12 -35 2 -28 3 -31 6 -12 3 22 11 28 43 33 40 6 70 0 82 -18 12 -19 20 2
8 23 -8 16 -17 20 -35 15 -19 -5 -25 -2 -25 11 0 12 -5 15 -20 10 -16 -5 -20
-2 -20 15 0 16 4 20 16 16 9 -3 22 -6 30 -6 8 0 14 -7 14 -15 0 -8 7 -15 15
-15 13 0 15 7 9 38 -4 20 -11 47 -15 60 -5 13 -8 35 -8 50 1 21 2 22 6 7 7
-29 23 -43 23 -20 0 31 -16 49 -35 41 -12 -4 -15 -13 -11 -29 4 -12 10 -39 13
-59 5 -37 5 -38 -26 -38 -17 0 -31 5 -31 10 0 6 7 10 15 10 21 0 29 24 15 49
-16 31 -42 27 -39 -6 4 -54 -1 -113 -10 -113 -15 0 -33 62 -21 74 15 15 12 26
-5 20 -10 -4 -15 0 -15 15 0 12 6 21 14 21 23 0 29 36 12 69 -16 29 -15 30 18
50 40 25 46 26 46 6 0 -8 5 -15 11 -15 7 0 9 9 5 24 -4 17 -1 26 10 30 11 4
14 12 9 24 -20 49 -20 48 -2 33 9 -7 17 -10 17 -7 0 15 -64 104 -72 100 -4 -3
-13 -2 -19 2 -8 5 -8 8 0 14 8 5 6 14 -8 31 -11 13 -20 19 -21 14 0 -6 6 -17
13 -24 10 -11 7 -12 -13 -6 l-25 7 26 -28 c30 -34 89 -129 89 -145 0 -6 -6 -8
-12 -5 -7 3 -21 9 -31 12 -10 4 -16 12 -13 19 9 24 -80 149 -134 189 -16 11
-54 40 -84 64 -30 23 -60 42 -65 42 -14 0 -33 38 -26 50 7 12 106 -56 183
-126 33 -30 63 -54 66 -54 3 0 6 9 6 19 0 11 -15 28 -35 40 -19 11 -35 25 -35
31 0 5 -7 10 -15 10 -8 0 -15 7 -15 16 0 10 -6 14 -14 11 -9 -4 -17 2 -21 14
-4 12 -12 18 -21 15 -8 -3 -14 1 -14 9 0 8 -9 15 -20 15 -11 0 -20 4 -20 9 0
5 -9 11 -21 14 -15 4 -23 -1 -31 -19 -13 -28 -21 -30 -38 -9 -7 8 -18 15 -25
15 -8 0 -10 9 -7 25 3 18 0 25 -12 25 -9 0 -16 -4 -16 -10 0 -5 5 -10 11 -10
5 0 7 -5 4 -11 -4 -6 -13 -8 -20 -5 -7 2 -16 -1 -19 -9 -3 -10 5 -15 27 -17
32 -3 33 -5 20 -49 -3 -9 3 -19 11 -22 13 -5 15 -2 10 18 -10 40 33 28 88 -23
38 -35 25 -47 -19 -17 -34 23 -60 25 -48 4 4 -5 -1 -9 -10 -9 -14 0 -13 -5 5
-30 18 -25 19 -34 10 -45 -16 -20 -34 -19 -51 2 -12 15 -12 16 3 10 10 -3 20
-2 23 3 8 13 -13 50 -27 50 -9 0 -9 -3 0 -12 17 -17 15 -33 -3 -18 -12 10 -16
8 -25 -15 -5 -14 -14 -23 -20 -20 -7 4 -6 13 1 26 13 26 13 26 -52 49 -67 25
-89 25 -89 3 -1 -14 -5 -12 -21 10 -11 15 -27 27 -34 27 -14 0 -30 18 -23 25
2 3 19 1 36 -4 30 -9 32 -8 32 15 0 25 7 29 29 15 10 -6 10 -13 2 -29 -10 -18
-7 -21 18 -27 16 -3 47 -8 70 -10 23 -2 51 -9 62 -16 17 -8 20 -8 17 2 -3 9
-90 46 -115 49 -2 0 -3 5 -3 10 0 6 8 10 18 10 16 1 16 1 0 11 -10 5 -18 17
-18 24 0 18 12 19 27 4 12 -12 37 -3 28 10 -2 5 -19 11 -36 15 -26 5 -29 8
-19 21 6 8 9 19 5 25 -5 8 -12 3 -20 -12 -7 -14 -8 -27 -3 -35 13 -17 1 -33
-24 -33 -14 0 -18 5 -14 16 15 39 18 64 7 64 -6 0 -11 -7 -11 -15 0 -8 -5 -26
-12 -41 l-12 -27 -101 7 c-112 7 -165 1 -165 -20 0 -18 -8 -18 -26 0 -38 38
-6 49 120 40 82 -6 98 -4 94 7 -4 11 -32 15 -117 17 -91 2 -112 5 -108 17 5
11 -11 25 -28 25 -2 0 -1 -17 2 -39 3 -23 1 -41 -6 -45 -6 -4 -11 -12 -11 -17
0 -6 4 -8 9 -5 5 3 11 -1 15 -9 7 -18 72 -21 78 -3 3 8 33 14 81 16 l77 4 0
-26 c0 -18 -5 -26 -17 -26 -12 -1 -7 -6 12 -15 29 -13 26 -13 -47 -14 -47 -1
-78 -5 -78 -11 0 -6 6 -10 13 -9 32 4 37 -2 37 -51 0 -44 -3 -50 -21 -50 -11
0 -29 -5 -41 -11 -25 -13 -39 -2 -16 15 11 8 13 17 7 28 -10 18 -7 87 4 106 6
9 -4 12 -41 12 -36 0 -54 5 -67 20 -10 11 -26 20 -37 20 -22 0 -25 35 -2 44 8
3 13 10 10 15 -9 14 -45 1 -61 -22 -9 -12 -20 -17 -30 -13 -24 9 -38 -3 -25
-19 9 -11 16 -11 30 -3 18 12 50 5 50 -11 0 -10 -56 -26 -78 -22 -7 1 -20 -6
-29 -15 -16 -16 -18 -15 -24 10 -4 15 -13 33 -19 41 -17 20 5 28 25 9 20 -20
33 -11 15 11 -14 16 -46 20 -54 6 -3 -5 1 -28 9 -51 19 -53 19 -66 1 -51 -10
8 -19 6 -39 -9 -28 -22 -43 -25 -52 -10 -3 5 9 16 27 24 27 11 30 15 16 21
-10 4 -35 -4 -65 -22 -46 -27 -47 -28 -20 -31 30 -4 35 -23 11 -43 -14 -11
-19 -10 -34 9 -10 12 -26 22 -35 22 -24 0 -13 -24 13 -28 31 -5 28 -15 -25
-75 -27 -29 -59 -69 -73 -90 -14 -20 -28 -37 -32 -37 -17 0 -7 40 12 50 11 6
20 19 20 28 0 10 5 23 11 29 14 14 3 33 -17 33 -8 0 -13 -4 -10 -9 3 -5 -1
-12 -9 -15 -11 -4 -14 -13 -9 -30 4 -19 1 -27 -16 -36 -12 -6 -28 -9 -36 -6
-8 3 -14 1 -14 -4 0 -6 3 -10 8 -10 4 -1 20 -12 37 -25 l29 -24 -24 -26 c-23
-24 -16 -37 8 -13 9 9 12 7 12 -10 0 -12 5 -22 10 -22 9 0 15 28 11 58 -1 6 5
12 13 12 19 0 33 -23 18 -28 -7 -2 -12 -13 -12 -25 0 -21 0 -21 13 -2 7 11 21
38 31 60 l18 40 -24 -23 c-37 -33 -42 -14 -7 25 16 19 32 48 36 64 9 45 30 36
23 -11 -1 -8 -9 -23 -18 -33 -15 -17 -15 -17 3 -11 15 6 17 4 12 -15 -3 -14 0
-24 9 -28 23 -9 16 -24 -9 -18 -18 5 -26 0 -40 -27 -9 -18 -30 -55 -46 -83
l-29 -50 -51 1 c-48 1 -52 0 -57 -25 -10 -47 -14 -53 -29 -47 -8 3 -17 1 -20
-4 -11 -18 -25 -10 -25 12 0 26 -14 14 -25 -20 -6 -21 -4 -22 19 -16 33 8 35
-13 2 -26 -35 -13 -39 -26 -15 -49 12 -11 18 -24 15 -30 -4 -5 -2 -12 3 -15
15 -9 22 10 15 38 -3 14 -13 27 -22 29 -12 3 -10 5 5 6 15 1 25 9 29 26 3 14
13 25 21 25 9 0 13 -6 9 -15 -4 -10 1 -15 14 -15 17 0 19 5 14 44 -4 28 -2 46
5 51 9 5 11 -3 7 -32 l-5 -38 11 43 c6 23 15 42 20 42 6 0 7 -18 3 -42 -4 -31
-3 -39 4 -28 6 8 11 25 11 38 0 12 5 22 10 22 19 0 21 -27 6 -65 -13 -31 -18
-35 -31 -25 -12 10 -15 7 -21 -15 -6 -23 -10 -25 -35 -20 -21 5 -29 3 -29 -8
0 -10 21 -18 69 -26 89 -14 94 -14 87 4 -7 20 8 19 39 -1 15 -10 25 -26 25
-40 0 -18 5 -24 23 -24 33 0 47 19 47 62 0 47 32 147 66 206 21 35 22 42 9 42
-9 0 -27 -11 -41 -26 -21 -20 -25 -31 -20 -58 5 -25 1 -41 -20 -71 -20 -29
-25 -48 -23 -83 4 -52 -15 -69 -24 -22 -5 20 -12 30 -25 30 -10 0 -27 7 -38
15 -17 13 -17 14 -1 15 9 0 17 8 17 18 0 9 7 26 15 36 8 11 15 27 15 35 0 9 5
23 10 31 8 13 12 12 25 -7 17 -24 35 -30 35 -13 0 6 -7 10 -15 10 -13 0 -12 6
5 40 24 47 25 57 5 40 -8 -7 -15 -21 -15 -31 0 -29 -24 -13 -44 29 -13 27 -15
37 -5 41 6 2 29 19 51 39 21 19 41 32 44 29 8 -8 -19 -47 -33 -47 -24 0 -13
-18 16 -28 32 -11 74 -5 66 9 -3 4 -12 6 -20 3 -16 -7 -31 19 -20 35 4 7 14 3
28 -10 19 -17 23 -18 25 -5 2 9 8 16 13 16 5 0 7 -12 4 -27 -6 -25 -2 -23 39
21 25 27 43 53 40 57 -2 4 0 10 6 14 5 3 10 11 10 17 0 6 -8 4 -18 -5 -20 -18
-47 -23 -37 -7 3 6 0 10 -8 10 -10 0 -13 -7 -10 -19 3 -13 -3 -25 -21 -37 -26
-16 -28 -16 -51 6 -14 13 -25 29 -25 36 0 7 -6 14 -12 17 -9 3 -5 13 11 31 14
14 22 28 19 31 -6 6 -48 -33 -48 -45 0 -6 -7 -10 -15 -10 -22 0 -18 11 15 48
36 39 57 41 70 6 8 -20 15 -25 31 -21 16 4 19 2 13 -15 -5 -18 -4 -19 16 -8
18 9 24 9 30 0 10 -16 30 -4 30 18 0 9 -7 26 -15 36 -19 25 -19 40 -1 33 7 -3
19 0 25 6 8 8 14 8 23 -1 8 -8 9 -12 1 -12 -6 0 -9 -9 -6 -20 4 -13 12 -19 22
-16 52 14 61 18 61 27 0 12 -17 12 -25 -1 -8 -12 -25 -13 -25 -2 0 5 10 14 23
21 21 11 20 11 -6 6 -41 -8 -30 17 12 27 19 5 36 18 43 33 12 27 44 36 34 10
-4 -10 1 -15 14 -15 11 0 20 -6 20 -14 0 -20 -20 -31 -29 -17 -12 19 -39 2
-34 -20 4 -14 11 -17 29 -13 30 8 31 -6 1 -34 -15 -14 -36 -22 -60 -22 -56 0
-87 -18 -87 -51 l0 -28 54 33 c65 39 140 64 227 75 35 5 56 9 47 10 -10 0 -18
6 -18 11 0 15 38 12 47 -3 4 -7 41 -18 82 -25 50 -8 101 -26 157 -55 79 -41
83 -42 88 -23 6 25 -7 40 -36 41 -23 0 -47 29 -35 42 5 4 12 1 17 -7 5 -8 12
-11 16 -7 9 9 -15 37 -32 37 -8 0 -16 -11 -20 -25 -7 -27 -15 -30 -45 -15 -24
13 -25 34 -1 28 13 -4 17 2 18 24 1 26 -1 28 -37 28 -22 0 -39 5 -39 11 0 6 9
9 20 6 17 -4 20 -2 14 15 -6 19 -3 20 24 15 17 -4 34 -2 37 3 12 19 22 9 19
-17 -2 -16 -1 -22 2 -15 7 15 24 16 24 2 0 -6 -9 -14 -21 -18 -18 -7 -17 -9
16 -25 31 -15 36 -15 41 -2 9 23 27 18 59 -15 16 -16 35 -30 43 -30 9 0 11 -7
7 -22 -9 -29 -32 -54 -42 -44 -4 4 -1 11 6 15 11 7 10 13 -4 35 -10 14 -21 26
-25 26 -10 0 -7 -47 3 -57 12 -11 8 -51 -5 -56 -8 -3 3 -21 29 -48 34 -34 45
-41 55 -31 7 7 20 12 30 12 23 0 45 39 28 50 -9 6 -9 9 0 15 11 7 100 -80 100
-97 0 -5 9 -8 21 -8 19 0 17 4 -16 50 -31 43 -35 53 -24 66 11 13 6 22 -32 57
-24 23 -51 42 -59 42 -8 0 -14 6 -12 14 3 15 -26 51 -41 51 -6 0 -2 -9 8 -20
24 -27 10 -39 -16 -14 -21 22 -18 48 7 58 22 8 64 -22 57 -41 -4 -10 -2 -14 7
-11 25 8 20 23 -15 47 -33 22 -45 41 -27 41 5 0 43 -33 86 -73 55 -52 75 -77
71 -89 -4 -9 1 -32 10 -52 19 -40 10 -71 -12 -41 -7 11 -13 15 -13 9 1 -5 16
-26 35 -47 30 -35 33 -36 31 -14 -2 13 -6 29 -10 35 -3 6 -2 13 4 17 12 7 23
-19 40 -93 16 -69 0 -93 -26 -38 -10 20 -22 36 -27 36 -5 0 -38 -20 -73 -45
-64 -46 -86 -56 -64 -30 17 20 3 55 -22 55 -17 0 -19 4 -14 25 7 27 -3 32 -21
14 -9 -9 -4 -26 19 -68 18 -31 33 -58 35 -60 2 -3 15 6 29 20 l25 24 19 -25
c27 -35 25 -56 -10 -77 -28 -16 -30 -21 -30 -75 0 -32 4 -58 9 -58 5 0 17 -7
26 -17 13 -12 19 -13 24 -4 6 9 11 8 21 -4 9 -11 16 -12 25 -5 19 16 29 -52
14 -98 -26 -80 -33 -99 -66 -167 -52 -105 -103 -165 -103 -121 0 8 -8 15 -17
15 -10 -1 -28 2 -41 6 -18 6 -21 4 -16 -8 4 -11 -2 -16 -18 -19 -18 -2 -27
-14 -40 -53 -18 -55 -24 -130 -9 -120 5 3 12 1 16 -5 13 -22 -27 -22 -50 0
-36 33 -56 20 -21 -15 22 -21 25 -30 14 -36 -18 -12 -28 -11 -28 1 0 6 -4 10
-10 10 -5 0 -10 -7 -10 -15 0 -8 -10 -19 -21 -26 -16 -8 -18 -13 -9 -19 9 -5
9 -9 1 -14 -6 -4 -11 -16 -11 -26 0 -31 -62 -38 -90 -10 -28 28 -19 36 19 20
44 -18 62 -8 55 30 -5 23 -3 30 10 30 18 0 19 5 7 35 -7 17 -11 15 -27 -22
-18 -41 -40 -60 -53 -47 -3 3 1 11 10 17 9 7 19 22 23 35 7 19 4 22 -23 22
-33 0 -41 -14 -15 -24 13 -5 14 -9 4 -21 -7 -8 -21 -15 -32 -15 -15 0 -17 3
-8 19 6 12 6 22 1 25 -10 6 -21 -16 -21 -41 0 -9 -8 -22 -17 -30 -13 -10 -15
-16 -5 -19 16 -7 16 -84 0 -84 -8 -1 -6 -6 4 -14 13 -10 15 -15 6 -24 -22 -22
5 -12 29 10 31 29 53 12 35 -27 -15 -32 -15 -55 -2 -55 6 0 10 11 10 25 0 28
5 31 70 40 25 3 50 9 56 13 16 10 28 52 15 52 -5 0 -13 -9 -16 -21 -9 -27 -30
-19 -30 12 0 18 6 25 25 27 14 2 34 7 45 12 11 4 27 11 35 14 22 10 56 30 74
45 34 29 16 -14 -25 -57 -38 -40 -42 -42 -54 -25 -13 17 -14 17 -21 0 -10 -28
10 -43 41 -29 23 11 26 9 35 -14 13 -33 13 -34 -5 -34 -8 0 -15 7 -15 15 0 18
-2 19 -45 1 -44 -19 -45 -29 -2 -21 25 5 39 2 51 -11 13 -12 20 -14 25 -6 4 7
18 -11 34 -43 26 -53 26 -55 7 -55 -11 0 -20 -4 -20 -9 0 -9 -48 -26 -62 -23
-5 1 -8 -2 -8 -7 0 -5 -12 -11 -27 -13 -14 -2 -28 -9 -30 -15 -4 -10 3 -10 29
-2 89 29 174 64 184 76 12 14 34 18 34 6 0 -4 -9 -16 -19 -27 -19 -21 -19 -22
-1 -46 18 -23 19 -24 38 -7 25 23 28 22 41 -13 5 -16 15 -30 20 -30 16 0 13
26 -4 44 -8 8 -15 21 -15 28 0 8 -5 19 -11 25 -13 13 -2 36 12 27 5 -3 18 5
29 18 11 13 19 19 20 14 0 -5 43 32 95 83 82 79 115 104 115 86 0 -2 -20 -27
-45 -55 -45 -50 -54 -70 -35 -70 6 0 15 11 20 25 12 32 33 32 57 0 13 -18 22
-22 33 -15 13 9 11 13 -9 28 -13 11 -22 26 -20 37 6 30 23 27 37 -5 14 -31 32
-40 32 -17 0 8 -9 22 -20 32 -12 10 -18 25 -16 32 3 7 -1 13 -10 13 -32 0 -24
31 21 90 90 117 165 310 201 520 20 117 14 303 -15 435 -34 157 -150 360 -306
535 -91 103 -84 97 -95 80 -7 -11 -11 -9 -19 13 -7 16 -21 29 -38 33 -32 8
-88 51 -88 68 0 6 -9 16 -20 21 -11 6 -22 19 -24 30 -3 16 -1 17 11 7 20 -16
54 8 45 32 -9 24 -27 20 -27 -6 -1 -21 -2 -22 -14 -5 -17 22 -26 22 -26 -3 0
-25 -12 -25 -35 0 -23 25 -115 54 -101 31 3 -4 19 -11 36 -15 17 -3 50 -20 73
-38 23 -18 44 -34 46 -35 2 -2 1 -6 -2 -10 -4 -3 -28 3 -55 15 -26 11 -56 24
-67 28 -19 6 -18 7 5 14 19 5 9 8 -40 13 -36 4 -87 14 -114 22 -56 17 -80 19
-72 6z m594 -379 c2 -14 -2 -22 -12 -22 -19 0 -29 17 -22 36 8 22 30 12 34
-14z m-958 -12 c0 -5 9 -10 20 -10 11 0 20 -5 20 -12 0 -9 3 -9 12 0 13 13 38
16 38 4 0 -4 -10 -12 -22 -17 -29 -13 -35 -35 -9 -35 12 0 22 -3 22 -7 7 -44
6 -63 -1 -68 -5 -3 -7 -12 -3 -20 4 -12 0 -13 -18 -7 -25 10 -40 35 -18 30 8
-2 15 8 17 21 2 13 -1 21 -6 17 -12 -7 -33 40 -26 59 7 18 8 18 -34 6 -25 -8
-32 -7 -32 4 0 7 6 16 13 18 7 3 4 6 -6 6 -24 1 -11 21 14 21 10 0 19 -4 19
-10z m-66 -16 c10 -25 -2 -30 -20 -8 -15 18 -15 18 -9 -4 9 -32 -8 -48 -72
-68 -31 -10 -72 -32 -91 -50 -32 -29 -62 -38 -47 -13 12 19 -12 8 -35 -16 -14
-15 -27 -22 -33 -16 -11 11 0 51 14 51 6 0 7 -6 3 -12 -5 -7 12 7 37 32 58 57
152 99 182 81 17 -11 19 -11 14 2 -3 8 0 20 6 26 16 16 44 13 51 -5z m347 -55
c8 -15 8 -24 0 -32 -14 -14 -14 -37 -1 -37 5 0 12 16 16 35 7 39 20 53 36 37
7 -7 4 -22 -12 -46 -12 -20 -17 -36 -12 -36 6 0 12 6 14 12 3 9 10 8 22 -5 14
-13 22 -15 31 -7 9 8 15 8 20 0 12 -19 -26 -23 -107 -13 -43 6 -81 12 -83 14
-2 2 -6 25 -10 52 l-7 47 41 0 c31 0 43 -5 52 -21z m453 -4 c20 -30 20 -35 1
-35 -8 0 -19 9 -25 19 -23 43 -3 57 24 16z m71 -65 c17 -22 35 -37 42 -35 6 2
14 -3 17 -11 19 -49 -5 -44 -60 10 -24 25 -44 52 -44 60 0 25 13 18 45 -24z
m-1011 -56 c10 -25 7 -34 -9 -34 -9 0 -15 9 -15 25 0 28 15 34 24 9z m913 -92
c-15 -15 -27 -36 -27 -45 0 -9 -5 -17 -12 -17 -15 0 -68 50 -68 64 0 6 17 27
37 48 l37 38 30 -30 30 -30 -27 -28z m213 2 c0 -13 10 -30 22 -38 18 -13 19
-18 8 -31 -20 -25 -40 -18 -40 14 0 32 -25 61 -33 39 -3 -9 -7 -7 -13 6 -5 13
-3 21 4 24 23 7 12 19 -13 14 -14 -2 -25 0 -25 6 0 17 53 19 73 3 9 -8 17 -24
17 -37z m-1352 -184 c1 -25 -17 -56 -19 -33 0 4 -3 20 -5 36 -3 18 0 27 9 27
9 0 14 -12 15 -30z m1290 -19 c2 -13 -4 -28 -15 -37 -16 -12 -20 -11 -35 7
-20 23 -24 49 -8 49 6 0 10 -4 10 -8 0 -5 7 -17 16 -28 15 -18 15 -17 10 14
-4 24 -2 32 7 30 6 -3 13 -15 15 -27z m-1312 -59 c3 -15 0 -20 -11 -16 -17 7
-21 48 -3 42 6 -2 13 -14 14 -26z m1334 11 c0 -4 -10 -17 -22 -30 l-21 -23 21
0 c25 0 29 -22 7 -40 -10 -8 -12 -18 -6 -29 13 -24 3 -40 -36 -56 -45 -19 -43
-19 -43 9 0 14 -5 37 -11 53 -10 26 -7 31 41 76 48 44 70 57 70 40z m-1365
-33 c9 -14 -17 -70 -32 -70 -15 0 -17 26 -3 35 6 3 10 15 10 26 0 20 15 26 25
9z m1530 -319 c-1 -8 -7 -17 -13 -19 -13 -4 -17 50 -5 62 9 8 21 -22 18 -43z
m-160 -3 c-9 -29 -21 -42 -28 -31 -7 12 11 53 23 53 7 0 9 -9 5 -22z m-23 -76
c-47 -108 -123 -224 -138 -210 -2 3 20 43 49 90 30 47 59 100 66 117 8 17 17
28 22 26 4 -3 5 -13 1 -23z m353 -206 c-10 -25 -22 -46 -26 -46 -12 0 -11 7 3
49 12 34 28 54 36 46 2 -2 -4 -24 -13 -49z m-365 -91 c0 -28 -4 -35 -20 -35
-11 0 -20 -6 -20 -12 -1 -18 -89 -112 -97 -104 -4 3 4 18 18 33 17 20 18 23 3
10 -22 -18 -44 -23 -44 -8 0 5 -7 12 -15 15 -19 7 -98 -41 -90 -54 10 -16 -34
-33 -51 -19 -11 9 -14 8 -14 -3 0 -18 -50 -42 -62 -30 -15 15 1 38 39 56 33
16 37 16 45 2 17 -30 28 -16 13 15 -17 33 -13 51 7 31 17 -17 24 -15 48 10 13
15 34 23 61 24 23 1 46 7 52 13 6 6 15 11 20 11 15 0 -15 -31 -37 -39 -11 -5
-15 -10 -9 -14 14 -9 99 67 119 104 20 39 34 37 34 -6z m-255 -42 c4 -24 3
-43 -2 -43 -14 1 -41 70 -36 91 8 31 29 4 38 -48z m85 -123 c-20 -12 -30 -3
-30 28 l0 26 23 -22 c18 -19 20 -24 7 -32z m-254 -69 c-7 -10 -85 -31 -117
-31 -36 0 -12 14 44 26 67 15 79 16 73 5z m-10 -43 c7 -10 -20 -38 -38 -38
-10 0 -11 34 -1 43 10 11 31 8 39 -5z m508 -26 c6 -10 -71 -77 -108 -93 -14
-7 -26 -16 -26 -21 0 -4 -9 -8 -20 -8 -25 0 -26 18 -2 28 30 12 106 66 120 84
14 19 28 23 36 10z m-154 -157 c10 -12 10 -18 0 -30 -19 -23 -30 -18 -30 15 0
33 11 38 30 15z"/>
<path d="M1064 2161 c-41 -19 -61 -37 -51 -48 3 -3 14 5 24 16 9 12 24 21 33
21 20 1 69 29 50 29 -8 1 -34 -8 -56 -18z"/>
<path d="M1496 2165 c-3 -9 1 -18 10 -22 19 -7 39 11 30 26 -10 16 -33 13 -40
-4z"/>
<path d="M2093 1631 c-32 -26 -30 -44 2 -29 14 6 25 19 25 30 0 22 0 22 -27
-1z"/>
<path d="M924 2616 c-15 -11 -16 -17 -7 -27 16 -16 43 -4 43 21 0 24 -9 25
-36 6z"/>
<path d="M720 2600 c-39 -21 -70 -26 -70 -10 0 7 -7 7 -20 0 -26 -14 -15 -33
13 -24 19 6 20 5 8 -10 -7 -9 -11 -16 -7 -16 8 0 116 70 116 75 0 7 -1 7 -40
-15z"/>
<path d="M1313 2604 c-7 -3 -9 -12 -6 -21 4 -10 2 -14 -5 -9 -6 3 -13 3 -16
-2 -2 -4 4 -13 15 -20 16 -10 19 -9 19 3 0 8 5 15 10 15 6 0 9 5 8 11 -2 6 3
14 10 16 6 3 12 -2 12 -11 0 -16 12 -21 23 -10 22 22 -31 43 -70 28z"/>
<path d="M1630 2600 c0 -5 -16 -10 -35 -10 -19 0 -35 -4 -35 -10 0 -5 15 -10
33 -10 17 0 48 -5 67 -11 50 -15 91 -17 87 -5 -2 6 -10 12 -18 13 -61 8 -89
15 -89 24 0 6 18 8 48 5 34 -4 40 -3 22 3 -35 13 -80 13 -80 1z"/>
<path d="M873 2583 c2 -10 8 -25 11 -33 4 -10 -4 -21 -24 -33 -30 -18 -31 -18
-49 5 -11 13 -23 20 -27 15 -4 -4 3 -18 15 -31 23 -24 24 -24 57 -8 19 8 34
19 34 24 0 4 8 8 19 8 10 0 30 9 44 20 14 11 32 20 40 20 9 0 19 5 22 10 11
18 -29 10 -55 -10 -34 -27 -58 -25 -66 5 -3 14 -11 25 -16 25 -6 0 -8 -8 -5
-17z"/>
<path d="M1410 2595 c0 -3 10 -15 22 -27 22 -22 115 -38 103 -18 -4 6 -17 10
-30 10 -32 0 -56 10 -50 21 3 4 12 6 20 2 8 -3 15 0 15 6 0 6 -17 11 -40 11
-22 0 -40 -2 -40 -5z"/>
<path d="M2410 2585 c0 -8 -4 -15 -10 -15 -5 0 -10 -7 -10 -15 0 -8 -4 -15
-10 -15 -5 0 -10 10 -10 22 0 21 -1 22 -17 5 -17 -17 -17 -19 0 -28 10 -6 17
-22 17 -37 0 -20 12 -39 43 -67 l42 -40 -38 40 c-34 38 -36 43 -22 60 8 11 15
30 15 43 0 12 5 22 10 22 6 0 10 9 10 20 0 11 -4 20 -10 20 -5 0 -10 -7 -10
-15z"/>
<path d="M460 2586 c0 -5 7 -18 17 -28 14 -16 15 -18 0 -18 -9 0 -19 5 -22 10
-3 6 -11 10 -17 10 -7 0 -7 -4 1 -13 13 -16 5 -28 -15 -20 -22 8 -44 -20 -32
-41 7 -13 7 -26 -1 -43 -16 -34 -5 -43 16 -12 9 13 44 52 77 87 57 60 70 90
25 58 -20 -14 -23 -14 -35 2 -8 9 -14 13 -14 8z"/>
<path d="M2064 2572 l-21 -18 23 -27 c13 -15 30 -27 37 -27 8 0 17 -7 21 -15
7 -20 46 -19 46 1 0 10 5 14 16 10 8 -3 12 -2 9 4 -3 6 1 10 9 10 23 0 21 -48
-1 -52 -14 -2 -2 -19 49 -69 51 -50 66 -61 65 -45 -1 12 -13 31 -27 43 -24 22
-24 23 -6 38 16 12 17 17 6 30 -19 23 -31 18 -24 -10 6 -26 -1 -31 -25 -16
-12 8 -13 15 -3 35 10 22 8 28 -15 46 -32 25 -36 25 -58 0 -14 -15 -21 -17
-32 -9 -20 17 -16 32 7 26 22 -6 19 5 -13 41 -24 26 -35 27 -63 4z m59 -8 c9
-10 -4 -34 -18 -34 -17 0 -28 17 -20 30 7 11 28 13 38 4z"/>
<path d="M2466 2564 c-20 -11 -25 -19 -17 -27 7 -7 16 -6 29 6 10 9 24 17 31
17 7 0 9 5 6 10 -8 13 -14 12 -49 -6z"/>
<path d="M1195 2555 c-22 -6 -47 -14 -55 -18 -8 -3 -36 -13 -61 -21 -39 -13
-103 -44 -204 -100 -46 -26 -189 -152 -223 -197 -20 -26 -43 -48 -49 -48 -15
-1 -18 -21 -3 -21 6 0 10 -5 10 -10 0 -6 -8 -10 -17 -8 -10 2 -18 -3 -17 -9 1
-7 2 -21 3 -30 0 -10 13 1 32 30 17 26 35 47 40 47 5 0 9 11 9 25 0 14 2 25 5
25 29 0 125 -87 125 -113 0 -8 4 -7 12 1 12 12 2 25 -74 102 -16 16 -28 33
-28 38 0 27 22 19 59 -20 22 -24 43 -40 46 -36 4 4 -7 22 -24 40 -36 39 -38
53 -11 70 11 7 20 18 20 25 0 7 9 13 21 13 12 0 23 8 26 20 3 11 14 20 24 20
11 0 19 5 19 10 0 6 9 10 20 10 10 0 23 8 29 18 5 9 11 15 13 13 2 -3 16 4 31
14 24 16 30 16 38 4 7 -11 10 -10 15 7 7 25 133 79 164 71 11 -3 25 1 31 9 7
8 20 12 30 9 13 -4 19 -1 19 9 0 18 -18 19 -75 1z"/>
<path d="M2533 2554 c-3 -8 -1 -20 6 -27 8 -8 11 -7 11 6 0 9 5 17 11 17 5 0
7 5 4 10 -9 15 -25 12 -32 -6z"/>
<path d="M1402 2536 c-9 -21 -16 -25 -26 -17 -8 7 -22 7 -42 1 -26 -8 -121
-32 -184 -46 -44 -10 -80 -29 -80 -41 0 -18 22 -63 31 -63 4 0 11 5 14 10 3 6
2 10 -4 10 -5 0 -6 11 -2 28 4 15 12 25 17 22 5 -3 8 -9 6 -14 -6 -18 23 -25
39 -10 11 10 19 12 24 5 8 -14 55 -14 55 -1 0 6 6 10 14 10 7 0 16 13 19 28 5
22 11 28 37 30 37 3 38 -21 2 -26 -31 -5 -28 -30 3 -28 14 0 25 4 25 9 0 10
44 9 77 -4 20 -7 45 -7 91 2 72 13 171 -2 200 -30 11 -12 16 -13 20 -3 3 9 17
11 53 6 34 -5 49 -3 49 5 0 6 5 11 10 11 6 0 10 -7 10 -15 0 -24 16 -18 29 11
l11 26 19 -24 c15 -17 22 -20 31 -11 10 9 5 15 -18 27 -17 9 -40 16 -52 16
-11 0 -53 9 -93 21 -39 11 -107 26 -149 33 l-76 13 -6 -33 c-8 -37 -20 -44
-86 -44 l-49 0 -3 57 c-3 55 -3 56 -16 29z m314 -66 c28 0 100 -28 92 -35 -5
-5 -56 3 -160 26 -36 8 -48 16 -48 30 0 18 1 18 46 -1 25 -11 57 -20 70 -20z
m-496 -16 c0 -12 -6 -15 -21 -11 -12 3 -22 0 -26 -9 -6 -16 -23 -9 -23 11 0 7
8 16 18 18 36 10 52 7 52 -9z"/>
<path d="M1760 2548 c0 -29 16 -40 37 -28 16 10 25 9 51 -4 18 -9 32 -21 32
-27 0 -8 4 -8 14 0 10 8 16 9 21 1 9 -14 38 -13 32 3 -2 6 -10 12 -18 13 -15
1 -33 7 -84 29 -52 22 -85 27 -85 13z"/>
<path d="M1450 2520 c-11 -7 -1 -10 35 -10 36 0 46 3 35 10 -8 5 -24 10 -35
10 -11 0 -27 -5 -35 -10z"/>
<path d="M2480 2523 c0 -17 31 -53 46 -53 8 0 14 -3 14 -7 -1 -13 -37 -53 -48
-53 -5 0 -16 -9 -23 -21 -14 -20 -17 -19 -87 50 -68 66 -102 86 -102 61 0 -5
4 -10 9 -10 5 0 48 -39 95 -87 122 -126 131 -137 165 -209 10 -23 24 -45 30
-48 6 -4 9 -11 6 -16 -3 -5 4 -15 15 -23 13 -9 18 -20 14 -31 -4 -10 0 -18 12
-23 11 -4 24 -14 31 -22 7 -9 13 -12 13 -7 0 6 7 1 15 -10 8 -10 15 -15 15
-11 0 5 -9 20 -20 34 -11 14 -20 32 -20 39 0 22 38 54 64 54 17 0 28 -9 40
-34 19 -41 22 -66 5 -49 -9 9 -18 9 -38 0 -36 -15 -35 -15 -21 -32 16 -19 50
-20 50 0 0 25 30 17 40 -11 14 -37 13 -39 -22 -49 -30 -9 -33 -13 -30 -44 3
-39 10 -51 20 -35 4 6 20 14 35 18 36 9 26 25 -13 22 -34 -2 -36 17 -2 22 38
6 45 25 27 84 -19 64 -95 228 -106 228 -9 0 -3 -20 18 -60 15 -29 16 -40 5
-40 -5 0 -17 16 -28 35 -19 35 -25 37 -66 20 -29 -12 -21 13 10 29 23 13 25
15 9 21 -11 5 -16 14 -12 24 3 10 -3 20 -18 26 -17 8 -22 18 -22 47 -1 20 -4
40 -8 44 -4 4 -7 0 -7 -9 0 -10 -5 -26 -12 -37 -11 -17 -8 -24 17 -50 29 -30
29 -31 7 -36 -12 -4 -19 -10 -16 -16 3 -5 15 -6 27 -2 21 6 21 6 5 -13 -15
-16 -16 -21 -4 -34 19 -19 44 -81 39 -96 -7 -20 -23 -15 -23 6 0 10 -7 22 -16
25 -10 4 -14 12 -10 22 5 12 2 15 -10 10 -13 -5 -15 -1 -9 21 5 23 4 26 -6 16
-10 -10 -16 -5 -27 28 -13 40 -19 50 -50 85 -8 8 -11 22 -7 32 6 15 10 13 31
-13 l25 -30 -6 27 c-5 19 -2 29 12 37 14 9 10 10 -22 5 -22 -4 -45 -14 -52
-23 -11 -14 -12 -14 -13 2 0 12 15 24 45 37 33 14 43 23 39 35 -5 11 0 18 15
22 25 6 29 26 4 21 -12 -2 -23 7 -33 27 -14 27 -60 49 -60 28z"/>
<path d="M734 2509 c-7 -11 22 -47 30 -38 8 7 -5 49 -15 49 -4 0 -11 -5 -15
-11z"/>
<path d="M690 2472 c-11 -12 -11 -17 -2 -20 10 -3 10 -7 1 -18 -9 -11 -15 -12
-26 -3 -21 18 -28 2 -9 -20 20 -22 18 -52 -3 -59 -11 -4 -12 2 -7 24 6 28 6
28 -9 9 -9 -11 -13 -30 -11 -41 6 -23 -17 -40 -37 -27 -7 4 -8 0 -4 -11 5 -11
-6 -35 -31 -69 -22 -29 -44 -62 -51 -74 -17 -33 -28 -28 -23 11 7 58 -3 62
-36 12 -18 -26 -32 -49 -32 -52 0 -2 14 -4 30 -4 35 0 39 -18 10 -45 -11 -10
-18 -21 -15 -24 2 -4 -6 -27 -17 -51 -11 -25 -22 -40 -25 -33 -2 6 3 25 12 42
l16 31 -30 0 c-36 0 -51 -19 -22 -27 24 -6 25 -8 11 -33 -8 -14 -7 -25 2 -40
12 -18 9 -24 -20 -51 -17 -16 -32 -38 -31 -47 0 -13 3 -12 11 6 6 12 19 22 29
22 12 0 23 16 35 53 24 71 95 212 138 272 61 85 187 206 210 203 24 -3 24 -23
1 -23 -16 0 -135 -112 -135 -127 0 -4 -7 -8 -15 -8 -8 0 -15 -4 -15 -10 0 -5
-16 -31 -36 -57 -52 -68 -137 -244 -149 -308 -2 -11 -11 -47 -19 -80 -8 -33
-20 -86 -26 -117 -12 -59 -24 -73 -33 -38 -3 10 2 25 10 31 12 11 12 14 -2 21
-8 5 -13 14 -10 19 4 5 11 7 16 4 5 -4 9 0 9 9 0 8 -6 17 -12 20 -9 3 -8 9 6
20 10 8 15 20 11 26 -4 6 0 19 9 28 9 11 12 23 7 31 -6 10 -13 4 -26 -20 -24
-47 -34 -91 -42 -179 -11 -125 -10 -155 7 -155 19 0 26 51 10 70 -15 18 -6 45
14 45 13 0 16 -26 18 -156 2 -86 -1 -158 -6 -161 -4 -3 -5 -18 -2 -34 6 -31
-2 -37 -22 -17 -9 9 -18 9 -38 -1 -35 -16 -24 -25 31 -26 37 0 45 3 45 17 0
10 5 18 10 18 14 0 13 -15 -5 -57 -19 -44 -19 -42 5 -36 24 6 25 0 4 -32 -9
-14 -12 -25 -6 -25 6 0 13 6 16 13 4 6 4 -2 2 -20 -3 -20 0 -36 9 -43 19 -16
20 -60 1 -60 -20 0 -36 -23 -26 -39 5 -10 19 -12 43 -8 33 5 35 4 53 -40 11
-25 27 -49 37 -55 13 -7 15 -13 8 -22 -6 -7 -8 -15 -6 -18 3 -3 -6 -13 -20
-22 -29 -19 -33 -38 -7 -34 9 2 25 19 34 38 l17 35 11 -31 c9 -27 16 -32 42
-30 17 0 33 -4 35 -11 3 -7 -3 -9 -16 -6 -16 4 -21 1 -21 -15 0 -12 -7 -25
-17 -30 -20 -11 -11 -42 12 -42 12 0 15 6 10 20 -8 24 20 27 48 6 22 -17 22
-26 -1 -26 -19 0 -42 -18 -42 -32 0 -4 7 -8 15 -8 8 0 15 7 15 15 0 8 4 15 9
15 5 0 17 3 27 7 14 5 16 2 11 -16 -5 -20 -3 -22 16 -17 21 5 57 -18 57 -37 0
-6 -9 -2 -20 8 -13 11 -25 15 -37 10 -21 -9 -20 -9 -55 -1 -17 4 -28 2 -28 -4
0 -5 6 -10 14 -10 8 0 21 -9 29 -20 14 -20 14 -20 31 5 9 14 21 23 27 19 6 -4
4 -13 -7 -25 -16 -18 -13 -49 5 -49 15 0 23 18 11 25 -6 4 -8 11 -4 16 3 5 10
7 15 3 5 -3 16 0 24 6 12 10 18 10 30 0 21 -17 19 -33 -4 -25 -12 3 -21 0 -25
-10 -6 -17 29 -22 39 -5 3 6 17 10 30 10 13 0 27 5 30 10 4 6 11 8 16 5 5 -4
9 -1 9 4 0 6 -14 11 -30 11 -19 0 -41 10 -58 25 -15 14 -32 25 -38 25 -7 0
-14 8 -17 19 -2 10 -17 25 -33 32 -17 9 -30 24 -32 37 -3 17 -8 21 -21 17 -15
-4 -17 -1 -14 20 4 20 0 27 -21 35 -16 6 -33 24 -41 43 -8 19 -29 49 -47 68
-17 19 -31 37 -30 42 3 10 -35 84 -48 92 -5 3 -10 19 -10 36 0 20 -5 29 -16
29 -11 0 -14 5 -10 17 4 9 -3 63 -14 119 -37 180 -31 389 17 584 21 87 81 231
104 252 11 9 19 22 19 30 0 41 157 221 242 278 43 29 44 43 2 50 l-29 6 33 17
c17 10 32 22 32 27 0 16 -12 12 -37 -12 -19 -18 -26 -20 -32 -9 -5 7 -13 11
-19 7 -6 -3 -12 2 -14 13 -3 17 -4 18 -18 3z m35 -41 c5 -10 -35 -44 -43 -37
-6 7 18 46 28 46 5 0 11 -4 15 -9z m-275 -1437 c0 -9 -41 -44 -52 -44 -16 0
-8 19 14 34 24 17 38 20 38 10z"/>
<path d="M2010 2457 c0 -8 7 -17 15 -21 8 -3 15 -15 15 -26 0 -24 15 -27 24
-4 10 25 8 29 -24 47 -25 15 -30 16 -30 4z"/>
<path d="M1014 2416 c-15 -12 -17 -17 -6 -27 10 -11 12 -10 12 4 0 20 11 22
28 5 13 -13 15 -8 6 16 -8 20 -15 20 -40 2z"/>
<path d="M1403 2406 c-4 -7 -15 -15 -23 -18 -13 -5 -12 -7 3 -13 25 -10 47 1
47 25 0 23 -15 27 -27 6z"/>
<path d="M1540 2412 c0 -5 -12 -13 -27 -19 -26 -10 -24 -11 23 -12 35 -1 59
-7 77 -21 33 -26 38 -25 24 5 -9 18 -20 25 -39 25 -16 0 -28 4 -28 9 0 5 -7
11 -15 15 -8 3 -15 2 -15 -2z"/>
<path d="M2089 2417 c-5 -18 -6 -57 0 -57 11 0 31 23 31 36 0 10 -28 29 -31
21z"/>
<path d="M597 2388 c-8 -13 -27 -35 -42 -50 -19 -19 -25 -33 -20 -47 8 -26 29
-28 22 -2 -2 10 4 29 15 42 45 58 59 79 50 79 -5 0 -16 -10 -25 -22z"/>
<path d="M963 2394 c-4 -11 2 -23 18 -35 27 -21 50 -21 57 1 4 12 2 13 -10 3
-16 -14 -38 0 -38 23 0 21 -20 27 -27 8z"/>
<path d="M1954 2378 c-15 -30 -15 -32 2 -45 10 -7 23 -13 28 -13 6 0 3 7 -8
15 -17 13 -17 15 -2 30 15 15 16 15 16 -5 0 -14 5 -20 13 -17 8 3 22 -6 32
-20 12 -15 26 -23 37 -20 11 3 18 0 18 -9 0 -7 9 -18 21 -25 14 -7 19 -17 16
-30 -5 -19 17 -39 29 -27 15 16 12 54 -7 74 -13 13 -18 28 -13 35 5 8 2 11 -7
7 -9 -3 -44 13 -80 38 -35 24 -67 44 -71 44 -4 0 -15 -14 -24 -32z"/>
<path d="M1892 2363 c-18 -35 -20 -43 -7 -43 8 0 15 6 15 14 0 8 5 16 11 18 6
2 9 15 7 28 -3 23 -5 22 -26 -17z"/>
<path d="M2362 2382 c3 -14 -14 -42 -23 -36 -25 15 17 -75 52 -112 12 -13 27
-33 33 -45 13 -26 36 -37 36 -17 0 8 -7 23 -15 33 -8 11 -31 40 -50 65 -38 49
-45 73 -18 63 11 -4 14 -3 9 5 -4 7 -3 12 3 12 14 0 3 27 -15 34 -7 3 -13 2
-12 -2z"/>
<path d="M888 2357 c-14 -12 -44 -35 -66 -51 l-40 -28 22 -33 21 -32 21 22
c11 12 27 24 35 27 12 4 11 8 -4 25 -17 20 -14 33 10 33 7 0 13 -7 13 -15 0
-8 7 -15 16 -15 12 0 14 5 9 18 -15 35 -18 65 -6 58 6 -4 11 -13 11 -20 0 -16
24 -38 33 -30 9 10 -22 64 -36 64 -6 0 -24 -11 -39 -23z"/>
<path d="M2130 2370 c0 -6 7 -13 15 -16 8 -4 15 -17 15 -30 0 -14 6 -24 14
-24 26 0 25 28 -3 54 -29 28 -41 32 -41 16z"/>
<path d="M1033 2326 c-40 -20 -73 -40 -73 -46 0 -17 16 -11 71 26 41 27 60 34
82 30 20 -4 27 -2 24 7 -7 22 -31 18 -104 -17z"/>
<path d="M2400 2304 c0 -3 13 -23 30 -44 58 -73 166 -257 157 -267 -3 -2 -15
12 -27 31 -12 20 -28 36 -36 36 -9 0 -14 8 -13 18 3 24 -22 73 -35 69 -19 -6
-13 -42 7 -39 19 3 23 -13 6 -23 -7 -5 -6 -12 4 -23 8 -10 26 -40 41 -69 14
-28 30 -54 36 -58 6 -4 8 -11 5 -16 -4 -5 -2 -9 4 -9 5 0 13 5 16 11 11 18 55
-31 55 -61 0 -15 7 -47 15 -71 9 -24 18 -74 22 -111 5 -59 3 -68 -11 -68 -19
0 -21 31 -3 49 10 10 8 12 -11 9 -23 -3 -24 -5 -25 -121 -2 -94 1 -116 11
-112 8 3 18 5 22 5 9 0 6 95 -4 120 -10 25 9 44 30 32 16 -9 18 -21 15 -89 -1
-43 -6 -79 -10 -81 -3 -1 -5 -20 -3 -42 2 -22 -1 -47 -7 -54 -7 -8 -8 -17 -3
-20 14 -8 22 4 22 35 0 41 11 64 21 47 5 -7 6 8 2 36 -6 47 -6 48 15 37 15 -8
22 -8 22 -1 0 5 -3 10 -7 10 -5 0 -15 4 -23 10 -12 7 -9 13 13 30 15 12 27 31
26 43 0 19 -3 17 -16 -10 -17 -35 -38 -45 -29 -15 17 59 17 70 -2 88 -12 12
-23 40 -27 74 -12 88 -45 204 -61 217 -10 7 -13 19 -9 32 4 12 2 21 -4 21 -6
0 -11 7 -11 15 0 8 -11 31 -25 51 -14 20 -25 47 -25 60 0 13 -4 24 -10 24 -5
0 -10 7 -10 15 0 8 -6 14 -12 13 -8 -2 -12 7 -10 25 3 19 -1 27 -12 27 -9 0
-16 4 -16 8 0 5 -12 22 -26 38 -14 16 -32 39 -41 52 -14 20 -33 30 -33 16z
m198 -324 c14 0 14 -2 6 -24 -10 -25 -22 -19 -49 24 -33 52 -32 60 3 27 15
-15 33 -27 40 -27z"/>
<path d="M890 2244 c-46 -36 -60 -54 -42 -54 23 0 42 13 43 29 0 12 2 12 9 -4
9 -19 9 -19 16 3 3 12 14 22 25 22 21 0 22 1 13 24 -8 22 -12 20 -64 -20z"/>
<path d="M1420 2160 c0 -11 6 -20 13 -20 19 0 27 10 20 26 -8 21 -33 17 -33
-6z"/>
<path d="M647 2123 c-19 -27 -46 -69 -61 -95 -26 -45 -27 -48 -9 -55 10 -3 22
-11 26 -17 5 -7 12 -5 20 8 60 92 72 114 72 131 0 13 7 20 19 20 24 0 32 21
16 40 -22 26 -47 16 -83 -32z"/>
<path d="M834 2115 c-16 -13 -17 -16 -4 -25 11 -7 18 -5 28 7 24 33 10 44 -24
18z"/>
<path d="M719 2068 c-88 -122 -148 -258 -167 -383 -10 -62 -8 -90 3 -39 29
142 93 291 170 400 25 35 41 64 36 64 -6 0 -25 -19 -42 -42z"/>
<path d="M551 2077 c-1 -20 -7 -30 -21 -34 -24 -6 -23 -3 -5 -44 l14 -34 1 32
c0 19 7 36 16 41 14 8 15 15 6 38 l-10 29 -1 -28z"/>
<path d="M2030 2075 c0 -15 51 -67 58 -60 3 3 -8 20 -26 38 -18 17 -32 27 -32
22z"/>
<path d="M1353 2004 c-199 -42 -357 -210 -397 -424 -8 -42 -21 -79 -30 -86 -9
-6 -16 -16 -16 -23 0 -10 -6 -12 -27 -10 -3 0 -12 -14 -20 -32 -8 -19 -18 -36
-24 -39 -16 -11 2 -42 20 -34 51 21 69 11 34 -17 -11 -10 -14 -10 -9 -1 4 6 2
12 -3 12 -19 0 -12 -39 9 -52 24 -15 26 -28 5 -28 -8 0 -15 -4 -15 -9 0 -5 9
-7 20 -4 24 6 27 43 4 43 -19 0 -13 24 8 28 16 3 42 -64 28 -73 -18 -11 28
-90 59 -102 18 -8 28 -18 25 -26 -2 -7 9 -31 26 -52 16 -21 30 -42 30 -47 0
-5 6 -8 13 -5 6 2 11 12 9 22 -3 13 1 16 12 12 9 -4 16 -5 16 -4 0 2 -27 30
-59 64 -62 64 -91 111 -122 202 -20 57 -26 171 -9 171 6 0 10 -13 10 -30 0
-44 20 -129 43 -183 17 -42 23 -48 44 -43 27 7 30 -2 6 -20 -17 -12 -13 -18
37 -69 145 -149 322 -208 505 -170 44 9 104 28 133 42 88 42 246 203 198 203
-7 0 -16 -10 -19 -22 -4 -12 -9 -19 -13 -15 -12 11 18 57 36 57 74 0 112 257
62 415 -47 148 -152 260 -310 325 -60 26 -89 31 -165 34 -51 1 -120 -3 -154
-10z m292 -74 c126 -48 210 -134 267 -275 69 -171 29 -354 -107 -490 -109
-109 -253 -153 -413 -126 -188 31 -337 183 -372 380 -40 219 105 457 319 526
69 22 229 14 306 -15z m341 -494 c-3 -14 -11 -26 -17 -26 -6 0 -8 7 -5 16 3 9
6 25 6 37 0 16 3 18 11 10 7 -7 9 -23 5 -37z m-161 -326 c-21 -24 -35 -26 -35
-5 0 8 7 15 15 15 8 0 14 3 14 8 -3 19 2 25 13 14 9 -9 7 -16 -7 -32z m-55
-29 c0 -12 -63 -52 -70 -45 -5 6 50 54 63 54 4 0 7 -4 7 -9z m-497 -35 c12 -9
14 -16 7 -21 -12 -7 -40 11 -40 26 0 13 12 11 33 -5z"/>
<path d="M1258 1881 c-52 -33 -78 -64 -29 -35 36 21 89 63 80 64 -3 0 -26 -13
-51 -29z"/>
<path d="M1520 1885 c77 -16 90 -17 70 -6 -8 5 -42 12 -75 15 l-60 6 65 -15z"/>
<path d="M1357 1856 c-96 -28 -171 -95 -220 -196 -29 -60 -32 -73 -32 -165 0
-87 4 -107 27 -158 35 -75 117 -160 187 -194 50 -25 66 -28 156 -27 80 0 109
4 145 21 24 12 48 19 52 17 5 -3 11 2 14 10 3 9 15 16 25 16 10 0 33 14 51 31
35 33 18 29 -19 -4 -13 -11 -23 -16 -23 -10 0 12 55 56 83 66 10 4 17 12 15
19 -1 7 4 30 11 52 10 28 16 35 22 25 5 -9 9 11 9 53 0 37 5 70 10 73 12 8 13
45 1 45 -5 0 -13 19 -19 43 -6 23 -24 68 -40 100 -16 31 -25 57 -20 57 4 0 8
5 8 10 0 6 -8 10 -18 10 -11 0 -27 9 -37 20 -11 12 -13 20 -6 20 7 0 9 5 6 10
-4 6 -11 8 -16 4 -6 -3 -39 8 -75 26 -56 29 -75 33 -156 36 -59 2 -111 -2
-141 -10z m265 -33 c94 -42 176 -141 203 -243 41 -155 -40 -328 -190 -408 -45
-24 -61 -27 -156 -27 -92 0 -111 3 -155 25 -58 30 -154 123 -154 150 0 11 -4
20 -10 20 -5 0 -10 8 -10 18 0 10 -5 23 -12 30 -7 7 -11 47 -12 104 0 79 4
101 25 148 30 64 74 120 95 120 9 0 13 4 10 9 -7 11 45 45 100 66 57 22 205
15 266 -12z"/>
<path d="M1454 1760 c-148 -16 -245 -121 -246 -267 -1 -197 215 -334 388 -245
52 27 112 88 135 137 33 71 22 188 -24 256 -55 82 -154 129 -253 119z m90 -39
c3 -4 18 -11 34 -14 40 -8 118 -95 132 -147 33 -124 -34 -249 -160 -295 -57
-21 -102 -19 -160 6 -99 44 -150 121 -150 227 0 58 4 75 29 113 37 58 71 88
118 104 43 16 149 20 157 6z"/>
<path d="M1105 1678 c-14 -29 -25 -64 -24 -78 0 -17 7 -6 23 35 13 33 27 68
31 78 4 9 4 17 1 17 -4 0 -18 -24 -31 -52z"/>
<path d="M1810 1717 c0 -14 44 -97 52 -97 4 0 -4 21 -19 48 -28 51 -33 59 -33
49z"/>
<path d="M1066 1450 c25 -194 158 -334 349 -369 70 -13 67 -13 61 -2 -3 4 -25
11 -49 14 -81 11 -155 46 -215 102 -71 65 -108 132 -128 227 -18 88 -28 103
-18 28z"/>
<path d="M1685 1144 c-33 -18 -84 -38 -112 -44 -29 -6 -53 -15 -53 -19 0 -25
191 49 221 86 14 17 15 17 -56 -23z"/>
<path d="M2755 1990 c-3 -5 -15 -10 -25 -10 -13 0 -17 -5 -14 -15 9 -22 -14
-18 -26 5 -6 11 -17 20 -26 20 -12 0 -11 -6 5 -38 23 -45 45 -122 72 -252 23
-108 44 -154 34 -75 -3 28 -15 83 -26 123 -23 87 -23 82 -4 82 8 0 15 -7 15
-15 0 -8 5 -15 10 -15 20 0 9 31 -15 42 -15 6 -24 17 -21 25 3 7 -2 17 -12 22
-25 14 -5 62 35 81 18 8 33 18 33 23 0 11 -28 9 -35 -3z"/>
<path d="M2405 1959 c-4 -6 -13 -8 -21 -5 -8 3 -14 1 -14 -3 0 -16 25 -19 43
-6 9 7 17 15 17 19 0 10 -18 7 -25 -5z"/>
<path d="M472 1943 c-16 -29 -15 -43 2 -43 20 0 24 10 16 40 l-6 25 -12 -22z"/>
<path d="M2334 1929 c-17 -19 -18 -21 -1 -30 20 -12 23 -29 4 -29 -22 0 -52
-39 -41 -50 7 -7 15 -2 24 15 8 14 20 23 27 21 10 -4 12 7 11 44 -1 28 -3 50
-4 50 0 0 -9 -9 -20 -21z"/>
<path d="M680 1931 c0 -6 8 -11 18 -12 14 0 14 -2 -3 -9 -19 -7 -19 -8 -1 -15
11 -5 21 -3 27 6 11 18 11 29 0 29 -5 0 -16 3 -25 6 -9 3 -16 1 -16 -5z"/>
<path d="M236 1913 c-3 -3 -6 -16 -6 -28 0 -11 -4 -25 -8 -30 -23 -28 -37
-116 -19 -122 21 -8 29 -2 17 12 -10 12 -10 15 3 15 23 0 29 15 32 86 3 59 -3
82 -19 67z"/>
<path d="M527 1913 c-15 -26 -59 -204 -66 -265 -9 -82 -3 -98 40 -98 22 0 29
-5 29 -20 0 -11 5 -20 10 -20 9 0 11 6 14 43 1 6 -7 12 -16 12 -10 0 -18 5
-19 10 -3 25 14 135 28 190 32 123 32 119 7 138 -13 9 -25 14 -27 10z m-17
-213 c0 -16 -4 -30 -10 -30 -5 0 -10 14 -10 30 0 17 5 30 10 30 6 0 10 -13 10
-30z m-15 -90 c-4 -20 -11 -28 -16 -23 -6 6 -6 20 1 38 14 36 24 26 15 -15z"/>
<path d="M2403 1903 c-14 -5 -18 -33 -5 -33 9 0 32 -44 32 -61 0 -6 -4 -7 -10
-4 -5 3 -10 15 -10 26 0 10 -4 19 -10 19 -15 0 -13 -15 11 -84 17 -48 28 -65
50 -75 15 -7 30 -20 32 -29 4 -16 1 30 -5 73 -2 14 3 19 22 20 22 0 25 4 22
35 -5 43 -28 100 -41 100 -5 0 -1 -24 10 -52 23 -65 23 -68 1 -68 -18 0 -52
29 -52 43 0 12 28 7 33 -5 4 -10 6 -10 6 0 1 8 -8 16 -18 19 -21 5 -39 55 -22
61 6 2 9 8 5 13 -6 10 -31 11 -51 2z"/>
<path d="M2586 1891 c-9 -14 4 -41 19 -41 21 0 28 19 15 35 -14 17 -26 19 -34
6z"/>
<path d="M2843 1888 c3 -9 9 -32 12 -50 6 -30 4 -34 -26 -45 -17 -7 -36 -10
-40 -7 -5 3 -9 -6 -9 -20 0 -14 5 -26 11 -26 7 0 8 -11 4 -30 -7 -34 10 -42
20 -9 5 13 12 18 23 14 16 -6 32 10 32 33 0 6 -3 11 -7 11 -35 -6 -46 15 -13
24 16 4 20 14 20 50 0 30 -6 49 -17 58 -15 12 -16 12 -10 -3z"/>
<path d="M91 1859 c-6 -18 -9 -34 -7 -37 8 -7 26 9 26 24 0 8 5 14 11 14 6 0
8 -9 4 -20 -4 -11 -2 -20 4 -20 6 0 11 3 12 8 0 4 2 17 5 30 2 12 0 22 -5 22
-5 0 -16 3 -24 6 -10 3 -18 -5 -26 -27z"/>
<path d="M685 1860 c-3 -5 -18 -10 -33 -10 -22 0 -24 -2 -10 -12 9 -7 18 -22
20 -33 3 -16 8 -11 24 23 12 23 18 42 13 42 -4 0 -11 -4 -14 -10z"/>
<path d="M1990 1856 c0 -12 43 -76 51 -76 14 0 11 11 -13 47 -20 29 -38 42
-38 29z"/>
<path d="M715 1824 c-14 -22 -15 -28 -4 -35 21 -13 27 -11 39 12 12 22 7 49
-9 49 -5 0 -16 -12 -26 -26z"/>
<path d="M437 1833 c-2 -5 -8 -26 -12 -48 -4 -22 -11 -45 -17 -52 -5 -7 -8
-18 -5 -25 4 -8 8 -5 12 10 4 12 14 22 22 22 12 0 13 3 4 14 -10 11 -7 17 9
29 16 11 20 21 15 36 -6 21 -20 28 -28 14z"/>
<path d="M2223 1833 c-10 -3 -10 -10 -2 -24 12 -23 29 -16 29 12 0 19 -5 22
-27 12z"/>
<path d="M617 1796 c-15 -23 -15 -24 6 -30 33 -9 44 -7 25 5 -21 12 -24 35 -5
42 7 4 8 6 1 6 -7 1 -19 -10 -27 -23z"/>
<path d="M2330 1808 c0 -9 7 -31 16 -49 l15 -34 -5 39 c-5 40 -26 75 -26 44z"/>
<path d="M133 1790 c-6 -22 -33 -28 -34 -7 0 6 -5 1 -10 -12 -13 -32 -2 -61
22 -61 17 0 20 -6 17 -42 -3 -39 -6 -44 -33 -49 l-30 -6 25 -11 c24 -10 24
-11 3 -11 -23 -1 -92 -41 -93 -53 0 -12 38 -10 45 2 3 6 22 10 41 10 l34 0 0
-55 0 -55 -43 0 c-24 0 -48 5 -54 11 -8 8 -13 8 -17 0 -11 -18 3 -31 34 -31
15 0 30 -7 34 -15 3 -8 15 -15 26 -15 24 0 27 -35 5 -66 -17 -26 -9 -37 16
-23 17 9 19 23 19 149 0 101 -3 140 -12 143 -10 3 -9 8 3 18 21 18 31 85 17
109 -8 13 -7 22 5 40 16 23 13 50 -5 50 -5 0 -12 -9 -15 -20z"/>
<path d="M2646 1725 c-12 -9 -16 -20 -12 -31 6 -15 9 -14 22 11 17 34 15 38
-10 20z"/>
<path d="M44 1696 c-3 -19 -3 -39 0 -45 4 -5 2 -12 -4 -16 -12 -8 -13 -25 -1
-25 12 0 19 21 27 75 7 54 -12 63 -22 11z"/>
<path d="M2532 1721 c-10 -6 -10 -11 3 -21 11 -9 14 -22 10 -42 -5 -22 -3 -28
9 -28 13 0 15 8 10 43 -8 49 -14 59 -32 48z"/>
<path d="M2890 1721 c0 -8 -7 -23 -17 -33 -15 -17 -15 -18 0 -18 10 0 17 -5
17 -11 0 -5 5 -7 10 -4 13 8 13 45 0 65 -8 12 -10 13 -10 1z"/>
<path d="M191 1692 c-6 -11 -10 -27 -9 -38 0 -10 -2 -26 -6 -35 -5 -10 -2 -19
7 -22 11 -4 17 5 22 31 3 20 9 47 12 60 6 27 -12 30 -26 4z"/>
<path d="M2366 1677 c-7 -33 -2 -73 20 -145 2 -7 8 -11 14 -7 6 4 5 16 -1 33
-6 15 -14 56 -18 92 -7 64 -8 64 -15 27z"/>
<path d="M254 1666 c-10 -26 -1 -38 20 -23 16 12 16 14 2 26 -13 11 -17 11
-22 -3z"/>
<path d="M391 1623 c0 -49 2 -54 10 -33 6 14 8 33 5 42 -2 10 0 18 5 18 5 0 9
7 9 15 0 8 -7 15 -15 15 -12 0 -15 -13 -14 -57z"/>
<path d="M862 1651 c-13 -36 -9 -52 9 -34 6 6 9 23 7 39 l-3 29 -13 -34z"/>
<path d="M2435 1644 c16 -38 14 -64 -4 -64 -5 0 -12 8 -14 18 -2 9 -2 4 0 -13
15 -100 14 -124 -2 -149 -16 -24 -16 -26 -1 -26 12 0 16 -10 17 -42 0 -36 2
-39 9 -20 5 12 14 22 21 22 7 0 8 -7 4 -17 -4 -10 -9 -29 -10 -43 -1 -14 -3
-31 -4 -37 0 -7 -6 -13 -11 -13 -6 0 -8 11 -4 28 5 19 3 24 -4 17 -16 -15 -26
-65 -13 -65 17 0 13 -37 -9 -82 -25 -52 -25 -54 0 -61 18 -5 19 -8 9 -31 -9
-20 -19 -26 -37 -24 -20 2 -31 -5 -49 -32 -90 -138 -128 -176 -282 -285 -126
-89 -116 -78 -101 -114 14 -35 30 -36 45 -3 6 14 16 20 26 17 12 -4 100 50
148 91 2 2 -4 13 -14 24 -22 24 -12 39 15 22 11 -7 24 -12 30 -12 14 0 13 33
-2 48 -6 6 -8 15 -4 19 4 5 14 0 21 -10 13 -18 15 -17 45 10 36 32 152 201
174 254 11 26 12 39 4 47 -14 14 -1 33 17 25 10 -3 15 1 15 15 0 11 7 37 16
58 10 25 14 51 10 76 -4 23 -2 38 4 38 5 0 10 7 10 16 0 8 -4 12 -10 9 -5 -3
-10 -1 -10 4 0 6 5 11 10 11 6 0 10 11 10 25 0 22 -4 25 -33 25 l-32 0 0 70
c0 68 1 70 25 71 14 1 29 1 33 0 5 -1 7 13 5 31 -2 25 -8 34 -25 36 -13 2 -23
11 -25 25 -2 12 -11 23 -21 25 -17 3 -17 2 -2 -34z m45 -414 c-17 -32 -21 -19
-8 26 9 31 13 34 16 17 2 -12 -2 -32 -8 -43z m-380 -501 c-54 -46 -139 -103
-146 -97 -6 7 155 126 171 127 6 0 -6 -13 -25 -30z"/>
<path d="M2810 1611 c0 -5 8 -12 18 -16 16 -6 16 -7 0 -19 -13 -9 -20 -34 -24
-85 -6 -62 -9 -71 -25 -66 -9 3 -21 0 -25 -6 -5 -9 3 -11 33 -7 38 5 40 4 35
-18 -5 -28 7 -31 34 -6 10 9 29 16 41 14 26 -4 63 14 63 30 0 7 -22 9 -65 6
-64 -4 -64 -4 -70 24 -4 15 -4 42 0 59 l7 31 57 -7 c84 -12 94 -11 99 4 3 9 0
12 -10 9 -8 -3 -25 0 -39 8 -13 7 -39 13 -56 14 -18 0 -33 5 -33 10 0 6 5 10
10 10 6 0 10 5 10 10 0 6 -13 10 -30 10 -16 0 -30 -4 -30 -9z"/>
<path d="M169 1589 c-7 -50 -8 -139 0 -143 14 -9 22 8 28 67 4 41 2 56 -11 66
-9 7 -16 12 -17 10z"/>
<path d="M650 1556 c0 -9 -9 -25 -20 -36 -13 -13 -20 -32 -19 -52 l1 -33 8 30
7 30 12 -30 c9 -21 9 -31 1 -33 -8 -3 -8 -8 1 -18 9 -11 8 -14 -5 -14 -9 0
-16 -5 -16 -11 0 -6 -9 -9 -20 -6 -28 7 -27 -35 1 -62 23 -21 23 -71 0 -79 -8
-3 -11 0 -7 7 4 6 1 11 -8 11 -9 0 -16 -6 -16 -14 0 -17 33 -31 38 -17 7 21
32 11 32 -13 0 -13 7 -26 15 -30 8 -3 15 -13 15 -21 0 -9 -4 -13 -10 -10 -13
8 -13 2 2 -30 12 -26 28 -29 36 -5 3 7 0 10 -7 6 -15 -10 -14 6 2 29 11 13 21
16 42 11 27 -7 27 -7 9 -28 -17 -19 -17 -21 -2 -15 21 7 38 -19 38 -57 0 -17
11 -34 35 -52 20 -15 33 -29 31 -31 -3 -3 6 -15 20 -28 13 -12 24 -27 24 -34
0 -6 12 -17 28 -24 15 -6 30 -16 34 -22 4 -5 10 -7 13 -3 4 3 -25 41 -64 82
-46 50 -85 105 -112 159 -22 45 -43 84 -45 86 -2 2 -15 -4 -30 -13 -14 -10
-27 -16 -27 -14 -1 2 -11 13 -21 25 -15 18 -16 26 -7 37 10 12 8 19 -8 35 -26
26 -27 51 -3 51 12 0 22 -15 32 -48 l15 -47 49 0 c49 0 49 0 69 -45 10 -25 19
-58 19 -73 -1 -22 2 -26 12 -18 14 12 26 5 26 -16 0 -7 -7 -13 -16 -13 -8 0
-12 -5 -9 -10 5 -8 11 -7 21 1 11 9 19 4 41 -22 47 -55 54 -69 48 -89 -4 -11
-2 -20 4 -20 6 0 11 7 11 15 0 22 13 18 44 -14 16 -16 39 -32 52 -35 28 -7 29
-14 9 -40 -14 -18 -15 -18 -49 2 -34 20 -46 19 -46 -3 0 -9 90 -65 105 -65 3
0 2 12 -1 26 -6 24 -5 25 14 15 11 -6 27 -11 34 -10 7 0 3 5 -9 11 -24 11 -31
28 -13 28 18 0 110 -50 110 -60 0 -5 -4 -12 -10 -15 -16 -10 -12 -55 4 -55 16
0 31 -18 23 -26 -2 -3 -27 4 -54 15 l-49 19 -35 -76 c-18 -41 -42 -86 -52 -99
-21 -26 -57 -31 -57 -8 0 8 -4 15 -9 15 -12 0 -23 -32 -14 -40 13 -11 135 -63
181 -76 36 -11 42 -11 42 1 0 8 -11 17 -24 21 -27 6 -42 42 -21 50 7 3 27 -2
43 -10 28 -14 30 -19 26 -53 -4 -29 -3 -34 5 -23 6 8 11 25 11 38 0 26 12 28
31 6 11 -14 10 -19 -9 -35 l-23 -18 38 -10 c65 -16 193 -24 193 -12 0 6 11 16
25 21 25 10 33 34 15 45 -13 8 -80 -5 -80 -16 0 -5 6 -8 13 -6 6 1 12 -5 12
-13 0 -8 -9 -15 -20 -15 -16 0 -20 7 -20 35 0 19 2 51 5 70 l5 34 90 3 c49 2
93 7 98 12 12 12 -186 0 -202 -12 -17 -14 -55 -11 -152 13 -105 27 -156 49
-138 61 8 4 14 16 14 25 0 32 30 39 84 22 l51 -16 0 23 c0 20 4 22 42 20 29
-2 47 -9 59 -24 9 -11 23 -21 31 -21 8 0 20 -6 27 -12 11 -10 14 -10 18 0 6
15 33 16 33 1 0 -8 4 -8 13 0 10 8 17 7 25 -1 26 -26 13 -38 -39 -38 -27 0
-48 -4 -45 -9 4 -5 14 -8 24 -6 9 2 41 4 71 4 52 1 53 2 38 19 -10 10 -17 26
-17 36 0 9 -8 19 -17 22 -10 3 -32 12 -49 19 -38 16 -55 7 -22 -12 22 -12 21
-12 -16 -13 l-38 0 6 43 c8 58 -5 101 -32 105 -17 3 -22 10 -22 32 0 16 -4 32
-10 35 -5 3 -10 0 -10 -7 0 -7 -8 -3 -18 10 -21 27 -32 20 -32 -20 0 -15 -1
-28 -2 -28 -34 6 -99 28 -98 33 7 34 14 47 26 47 17 0 19 17 2 22 -18 6 -69
-22 -62 -34 4 -6 10 -5 15 3 7 11 9 10 9 -3 0 -27 -11 -48 -26 -48 -8 0 -14 8
-14 18 0 22 -34 44 -56 35 -12 -4 -15 -3 -10 5 5 8 0 12 -13 12 -26 0 -26 5
-1 30 26 26 60 25 88 0 17 -16 22 -18 22 -6 0 18 -49 46 -80 46 -12 0 -30 -10
-40 -22 -27 -34 -37 -13 -11 22 36 50 7 96 -33 51 -15 -16 -15 -19 -2 -24 9
-4 17 1 21 14 4 10 11 17 16 14 15 -10 11 -20 -22 -54 -24 -26 -33 -30 -45
-21 -7 7 -11 17 -8 22 4 6 0 14 -7 19 -11 8 -7 15 19 38 20 17 32 36 31 52 l0
24 -9 -22 c-11 -27 -30 -30 -30 -6 0 13 -3 14 -12 5 -21 -21 -54 -13 -81 18
-34 38 -34 42 3 59 35 15 60 2 60 -30 0 -26 -16 -24 -24 3 -4 18 -8 20 -18 10
-10 -10 -8 -17 10 -34 21 -21 23 -21 39 -5 16 16 16 19 0 52 -15 31 -20 34
-47 29 -18 -4 -30 -2 -30 4 0 6 10 13 23 15 15 3 12 5 -12 6 -33 1 -33 1 -17
26 17 25 9 34 -11 14 -17 -17 -26 7 -11 31 12 18 10 23 -17 45 -26 21 -27 24
-10 25 17 0 17 2 5 10 -13 9 -13 11 0 20 10 6 -6 8 -50 4 -49 -4 -70 -2 -85 9
-16 12 -17 18 -7 30 10 11 10 17 1 22 -7 5 -9 22 -6 46 3 22 1 42 -4 45 -5 3
-9 -2 -9 -10z m20 -174 c0 -17 -39 -44 -55 -39 -21 9 -19 22 8 35 27 13 47 15
47 4z m130 -42 c0 -12 -7 -20 -16 -20 -12 0 -15 -9 -12 -37 2 -31 -1 -38 -16
-41 -14 -3 -17 0 -13 12 3 8 2 18 -3 21 -13 8 -41 67 -35 74 3 3 15 0 26 -8
17 -10 25 -10 42 3 28 19 27 19 27 -4z m-85 -76 l5 -39 -14 30 c-18 36 -21 74
-6 59 6 -6 13 -28 15 -50z m615 -418 c0 -8 -6 -16 -12 -19 -18 -6 -3 -19 23
-21 26 -1 39 -26 14 -26 -13 0 -50 15 -63 25 -1 1 2 14 7 29 11 28 31 36 31
12z m-14 -72 c57 -16 86 -39 37 -29 -73 16 -113 28 -113 36 0 13 14 11 76 -7z
m-12 -34 c16 -6 26 -13 23 -16 -10 -10 -72 5 -93 22 -18 15 -18 15 11 10 17
-2 43 -9 59 -16z m77 -10 c5 0 9 -5 9 -11 0 -15 -43 -7 -48 10 -3 10 0 12 12
8 10 -4 22 -7 27 -7z m-154 -182 c-22 -14 3 -21 28 -8 33 17 75 0 75 -31 0
-18 -4 -20 -27 -15 -16 4 -37 8 -48 10 -23 4 -96 46 -80 46 5 0 3 6 -3 12 -10
10 -15 10 -21 -1 -12 -18 -46 1 -48 27 -1 18 2 18 67 -7 41 -15 64 -28 57 -33z
m-157 -28 c0 -11 -7 -20 -15 -20 -15 0 -21 21 -8 33 12 13 23 7 23 -13z m43
-26 c-9 -23 -33 -16 -33 9 0 13 3 27 7 31 11 10 33 -23 26 -40z m277 21 c0 -8
-9 -15 -20 -15 -11 0 -20 7 -20 15 0 8 9 15 20 15 11 0 20 -7 20 -15z m-86
-41 c9 -3 16 -15 16 -25 0 -10 5 -19 11 -19 6 0 8 9 4 20 -5 16 -2 20 19 20
22 0 26 -4 26 -31 0 -31 0 -32 -42 -25 -53 9 -58 12 -58 42 0 26 1 27 24 18z"/>
<path d="M391 1536 c-9 -11 -9 -15 1 -19 9 -4 10 -8 3 -14 -6 -4 -11 -21 -12
-38 -1 -16 1 -24 4 -17 2 6 11 12 18 12 7 0 15 15 17 35 5 41 -13 63 -31 41z"/>
<path d="M701 1498 c0 -33 3 -58 9 -58 11 0 11 40 0 85 -6 25 -8 20 -9 -27z"/>
<path d="M2531 1541 c-9 -6 -10 -10 -2 -12 7 -3 9 -12 6 -22 -6 -13 -11 -14
-26 -6 -11 5 -24 7 -29 4 -18 -11 -10 -24 18 -27 19 -2 32 -13 44 -37 l17 -33
6 34 c8 44 3 101 -10 105 -5 1 -16 -1 -24 -6z"/>
<path d="M760 1489 c0 -49 1 -51 23 -44 12 4 30 7 40 6 15 0 18 7 15 42 -3 41
-4 42 -40 45 l-38 3 0 -52z m60 -2 c0 -19 -1 -19 -20 -2 -21 19 -18 37 5 28 8
-3 15 -14 15 -26z"/>
<path d="M216 1515 c4 -9 15 -15 28 -13 29 4 23 22 -9 26 -19 3 -24 0 -19 -13z"/>
<path d="M443 1454 c3 -41 11 -81 17 -89 7 -9 8 -15 0 -20 -5 -3 -10 -2 -10 3
0 6 -12 13 -26 16 -23 6 -25 10 -19 39 6 27 5 30 -6 19 -29 -27 2 -214 51
-313 5 -9 14 -36 20 -60 6 -24 22 -61 36 -81 13 -21 24 -42 24 -48 0 -5 4 -10
9 -10 17 0 23 20 11 35 -13 16 -7 45 10 45 5 0 10 -9 10 -20 0 -11 7 -20 15
-20 8 0 15 -7 15 -15 0 -29 73 -115 97 -115 29 0 29 -6 -1 -45 l-24 -31 49
-52 c27 -29 52 -52 55 -52 3 0 25 -13 49 -30 24 -17 46 -30 49 -30 3 0 15 9
26 20 11 11 24 20 30 20 18 0 10 -29 -12 -45 -20 -13 -21 -17 -8 -25 22 -14
35 -7 38 23 2 17 8 24 17 21 8 -4 20 7 30 27 19 36 23 30 -61 79 -28 16 -63
41 -77 55 l-25 26 -24 -24 c-13 -13 -37 -32 -53 -43 l-28 -18 6 26 c4 15 3 30
-3 33 -12 7 -13 35 -2 35 5 0 14 -11 20 -25 l11 -25 26 26 c21 20 23 29 14 40
-17 21 -28 17 -22 -7 4 -16 2 -20 -8 -17 -8 3 -13 13 -11 23 3 13 -1 16 -12
12 -12 -5 -16 0 -16 22 0 15 -9 36 -20 46 -18 16 -20 16 -20 2 0 -27 -14 -19
-32 17 -12 26 -14 36 -5 45 9 9 9 14 -1 20 -8 5 -19 19 -26 32 -6 13 -21 25
-33 27 -12 2 -26 15 -33 33 -15 34 -16 33 30 45 30 8 35 14 38 44 4 37 -13 33
-20 -5 -5 -29 -42 -27 -46 3 -2 12 -7 22 -12 22 -5 0 -6 10 -1 22 4 12 4 39
-2 60 -7 28 -6 42 3 53 10 12 10 15 -3 15 -11 0 -18 15 -24 53 -7 47 -11 52
-36 55 -21 3 -27 9 -27 28 0 21 5 24 33 24 32 0 34 -2 44 -47 l10 -48 2 41 c0
22 6 45 13 52 7 7 8 12 2 13 -5 1 -18 2 -29 3 -11 1 -32 3 -47 4 -17 1 -28 8
-28 17 0 8 -5 15 -11 15 -9 0 -10 -22 -6 -76z m63 -89 c1 -17 6 -41 11 -55 17
-41 26 -110 15 -110 -8 0 -33 83 -36 122 -1 3 -4 9 -8 13 -4 4 -4 13 -2 20 3
7 1 16 -5 20 -17 10 -13 27 7 23 11 -2 17 -13 18 -33z m-64 -27 c8 -7 25 -52
37 -100 26 -108 57 -192 76 -208 19 -16 19 -30 1 -30 -7 0 -19 14 -26 30 -7
17 -15 29 -17 26 -3 -2 1 -14 7 -26 6 -11 9 -26 7 -33 -6 -15 -59 103 -76 168
-8 28 -22 79 -32 114 -11 35 -19 65 -19 67 0 9 27 3 42 -8z m188 -387 c0 -10
-7 -6 -20 14 -11 17 -20 35 -20 40 1 17 40 -36 40 -54z m257 -241 c9 -8 34
-23 55 -32 39 -18 51 -38 21 -38 -9 0 -24 7 -33 15 -15 14 -19 12 -36 -20 -19
-37 -28 -42 -39 -24 -4 6 3 21 15 34 l22 23 -38 34 c-23 22 -34 39 -30 47 6 9
13 8 27 -6 10 -10 26 -25 36 -33z m-66 -30 c26 -22 31 -32 22 -41 -13 -13 -33
-4 -33 17 0 8 -10 14 -25 14 -24 0 -34 18 -18 33 11 12 19 8 54 -23z"/>
<path d="M2930 1478 c0 -19 2 -20 10 -8 8 12 12 13 19 2 6 -11 10 -10 15 3 9
24 8 25 -19 25 -19 0 -25 -5 -25 -22z"/>
<path d="M214 1469 c-11 -18 12 -32 34 -20 15 8 22 7 29 -2 25 -32 24 -36 -16
-34 -51 3 -53 -11 -3 -19 20 -3 41 -10 47 -15 12 -12 35 -12 35 0 0 5 -7 17
-17 26 -13 13 -14 18 -3 25 21 13 4 37 -30 44 -47 9 -68 8 -76 -5z"/>
<path d="M2037 1463 c-4 -3 -7 -18 -7 -32 0 -14 -7 -51 -16 -81 -9 -30 -18
-66 -21 -80 -4 -13 -19 -42 -35 -64 -21 -30 -25 -42 -17 -52 16 -19 26 -17 32
6 8 29 25 25 19 -5 -2 -14 0 -25 6 -25 15 0 24 17 13 24 -5 3 -7 15 -4 26 4
16 8 18 19 9 11 -9 14 -8 14 1 0 7 -7 18 -15 24 -14 10 -13 18 5 75 11 35 24
69 29 75 16 20 22 66 9 66 -9 0 -9 3 0 12 7 7 12 16 12 20 0 10 -34 11 -43 1z"/>
<path d="M167 1413 c-2 -4 -2 -27 1 -50 3 -29 9 -43 19 -43 11 0 13 11 11 47
-3 42 -19 67 -31 46z"/>
<path d="M2091 1406 c-8 -10 -9 -16 -1 -21 13 -8 30 3 30 21 0 18 -14 18 -29
0z"/>
<path d="M2658 1400 c-13 -8 -15 -19 -11 -45 4 -24 2 -35 -7 -35 -8 0 -10 -8
-6 -24 3 -14 2 -28 -4 -31 -19 -12 -10 -31 24 -48 33 -15 34 -15 40 6 9 35 7
67 -5 67 -5 0 -8 -3 -6 -7 8 -13 -12 -55 -23 -48 -10 6 -3 93 10 110 12 16 21
65 13 65 -5 0 -16 -5 -25 -10z"/>
<path d="M2540 1383 c-1 -5 -3 -25 -6 -47 -6 -41 10 -44 19 -4 2 13 8 31 12
41 5 12 3 17 -9 17 -9 0 -16 -3 -16 -7z"/>
<path d="M2757 1383 c-3 -5 -7 -30 -11 -58 -5 -45 -14 -84 -48 -210 -5 -22
-14 -49 -18 -60 -51 -124 -64 -154 -77 -180 -9 -16 -21 -34 -27 -40 -7 -5 -23
-28 -37 -51 -26 -43 -56 -85 -103 -140 -26 -32 -25 -49 2 -22 7 7 12 8 12 2 0
-14 -33 -44 -48 -44 -7 0 -9 7 -5 18 6 16 -67 -42 -75 -60 -2 -5 -8 -8 -14 -8
-13 0 -135 -101 -142 -119 -5 -10 -3 -11 6 -4 7 5 42 31 78 58 36 26 80 62 97
78 18 17 35 28 38 25 16 -16 -203 -180 -258 -194 -16 -3 -35 -17 -44 -31 -11
-16 -19 -21 -26 -14 -7 7 -20 5 -40 -5 -123 -64 -362 -117 -536 -118 -81 -1
-105 2 -109 13 -4 11 3 13 32 8 23 -4 34 -2 30 4 -3 6 -7 22 -9 36 -2 23 -19
42 -37 43 -14 0 -8 -18 7 -24 25 -9 17 -24 -11 -18 -23 4 -25 2 -20 -15 14
-43 -13 -44 -155 -7 -74 19 -142 36 -152 37 -9 1 -17 5 -17 9 0 4 -8 8 -17 8
-10 0 -31 9 -48 20 -16 11 -38 20 -48 20 -18 0 -52 17 -74 37 -7 6 -22 15 -33
18 -11 3 -20 11 -20 16 0 5 -5 9 -10 9 -19 0 -149 95 -156 113 -3 10 -8 16
-11 13 -3 -3 -20 6 -38 19 -17 14 -36 25 -42 25 -6 0 -8 11 -5 25 2 15 0 25
-7 25 -40 0 -219 272 -191 290 9 6 7 11 -9 19 -11 7 -21 17 -21 23 0 6 -6 19
-13 27 -17 21 -50 124 -63 196 -11 62 -28 105 -41 105 -12 0 -14 -8 -8 -37 7
-37 43 -157 91 -297 26 -77 25 -81 -34 -114 l-40 -22 -16 41 c-19 47 -16 53
39 73 l40 15 -42 0 c-59 1 -73 -6 -73 -41 0 -30 37 -108 51 -108 4 0 12 -14
18 -30 5 -17 17 -30 26 -30 14 0 14 3 0 30 -18 34 -19 50 -4 50 6 0 16 -14 22
-30 12 -33 19 -35 48 -20 27 15 24 32 -6 24 -15 -4 -25 -2 -25 5 0 6 5 11 10
11 6 0 10 11 10 25 0 14 3 25 6 25 13 0 54 -52 54 -68 0 -10 9 -23 20 -30 11
-7 20 -18 20 -25 0 -7 9 -20 20 -30 11 -9 20 -24 20 -32 0 -8 7 -15 16 -15 9
0 18 -9 21 -20 3 -11 11 -20 19 -20 7 0 16 -5 20 -12 5 -8 2 -9 -9 -5 -10 3
-17 2 -17 -3 0 -6 4 -10 10 -10 5 0 13 -15 18 -33 6 -23 15 -33 32 -35 21 -3
22 -2 11 12 -25 30 0 16 67 -37 110 -88 184 -135 294 -186 215 -101 350 -132
568 -132 182 0 294 20 439 75 106 41 101 39 101 26 0 -11 -34 -28 -110 -55
-39 -14 -46 -20 -45 -43 0 -25 -4 -27 -50 -33 -36 -5 -53 -3 -61 7 -6 8 -26
14 -44 14 -31 0 -32 -1 -17 -18 10 -10 17 -26 17 -35 0 -18 25 -23 35 -8 3 5
31 15 63 21 89 18 122 32 122 52 0 12 -8 18 -22 18 -20 1 -21 2 -6 10 18 11
84 17 108 9 11 -3 16 5 18 26 4 32 22 60 22 33 0 -8 6 -20 13 -27 11 -8 13 -5
9 19 -5 38 11 58 68 83 121 53 322 233 439 391 39 53 46 58 73 52 18 -3 27 -2
23 4 -3 6 -13 10 -21 10 -8 0 -14 5 -14 10 0 13 3 13 50 -6 l40 -16 -20 -28
c-31 -43 -24 -58 9 -20 36 43 56 90 37 90 -6 0 -17 -5 -22 -10 -7 -7 -24 -3
-53 12 -32 17 -45 20 -48 10 -7 -19 -111 -163 -141 -194 -53 -57 -40 -25 26
62 78 104 131 188 136 217 3 11 14 40 25 64 12 23 21 53 21 66 0 13 5 23 10
23 6 0 10 9 10 20 0 10 7 39 15 64 8 24 16 56 17 70 3 31 9 32 33 6 17 -18 14
-25 -8 -21 -5 1 -7 -4 -5 -11 7 -19 78 -23 78 -4 0 8 8 17 19 21 25 8 44 115
21 115 -5 0 -10 -17 -10 -37 0 -59 -11 -69 -57 -55 -62 19 -70 27 -54 54 10
16 10 23 2 26 -19 6 -12 22 12 23 21 0 21 1 2 9 -26 11 -33 12 -38 3z"/>
<path d="M2402 1359 c-1 -9 -5 -32 -8 -50 -4 -28 -3 -31 6 -16 6 9 9 32 7 50
-2 17 -5 25 -5 16z"/>
<path d="M2080 1353 c0 -5 5 -15 10 -23 9 -13 11 -13 20 0 15 22 12 30 -10 30
-11 0 -20 -3 -20 -7z"/>
<path d="M2606 1339 c-2 -8 -9 -45 -15 -83 -24 -139 -97 -319 -170 -416 -46
-61 -47 -65 -26 -74 9 -3 15 0 15 9 0 7 6 20 13 27 36 38 107 171 138 261 20
55 28 67 44 65 12 -2 21 4 23 14 3 13 -1 16 -13 12 -13 -5 -16 -2 -13 12 2 11
11 18 21 18 9 -1 17 5 17 13 0 10 -6 12 -20 8 -23 -7 -24 6 -10 90 7 47 5 74
-4 44z"/>
<path d="M310 1314 c0 -19 -4 -25 -15 -20 -9 3 -15 0 -15 -9 0 -8 5 -15 11
-15 16 0 47 43 42 57 -9 22 -23 14 -23 -13z"/>
<path d="M49 1318 c-5 -17 -8 -48 -5 -48 8 0 36 31 36 41 0 8 -29 14 -31 7z"/>
<path d="M147 1283 c-5 -7 -17 -13 -28 -13 -13 0 -19 -7 -19 -23 0 -13 -6 -29
-12 -36 -11 -10 -9 -12 7 -9 15 2 25 -6 37 -32 l18 -35 -6 33 c-3 19 -1 39 6
47 6 7 10 29 8 47 -2 21 -6 29 -11 21z"/>
<path d="M2342 1200 c11 -18 10 -23 -10 -38 -16 -12 -19 -21 -12 -28 7 -7 8
-19 1 -36 -7 -18 -6 -29 2 -37 17 -17 29 -13 19 7 -12 22 -5 42 14 42 10 0 13
7 8 25 -3 13 -1 38 4 55 10 28 9 30 -14 30 -22 0 -23 -2 -12 -20z"/>
<path d="M266 1192 c-3 -6 -2 -13 4 -17 6 -4 8 -11 5 -16 -4 -5 6 -9 21 -9 23
0 26 2 14 13 -8 6 -19 18 -26 26 -7 10 -13 11 -18 3z"/>
<path d="M2234 1167 c-6 -18 -15 -41 -19 -52 -6 -14 -5 -17 3 -10 17 15 43 83
34 89 -4 2 -12 -10 -18 -27z"/>
<path d="M2660 1167 c0 -13 -5 -28 -11 -34 -8 -8 -8 -13 0 -17 6 -4 15 4 21
19 13 34 13 55 0 55 -5 0 -10 -10 -10 -23z"/>
<path d="M2841 1153 c-17 -62 9 -76 27 -14 15 49 15 51 -3 51 -8 0 -18 -16
-24 -37z"/>
<path d="M92 1151 c2 -19 9 -36 16 -39 9 -3 11 4 6 25 -10 44 -26 54 -22 14z"/>
<path d="M176 1143 c6 -41 6 -43 -20 -43 -28 0 -35 -17 -11 -26 20 -8 19 -21
-2 -27 -10 -3 -1 -5 20 -6 20 0 37 -5 37 -11 0 -5 -4 -10 -10 -10 -16 0 -11
-27 6 -34 27 -10 56 -7 51 7 -2 6 -12 10 -22 9 -16 -3 -17 -1 -6 11 6 8 8 18
3 21 -5 3 -7 18 -4 34 2 18 -2 33 -12 41 -9 8 -16 21 -16 30 0 9 -5 23 -10 31
-7 11 -8 2 -4 -27z"/>
<path d="M290 1119 c0 -5 5 -7 10 -4 6 3 10 2 10 -4 0 -5 -6 -12 -12 -14 -9
-4 -8 -6 2 -6 8 0 26 8 40 19 l25 20 -37 0 c-21 0 -38 -5 -38 -11z"/>
<path d="M2738 1092 c-5 -36 3 -46 45 -56 26 -6 28 -10 22 -39 -10 -46 -18
-50 -59 -30 -37 17 -38 17 -52 -2 -8 -10 -14 -26 -14 -34 1 -13 3 -13 11 2 11
20 36 16 78 -10 l23 -15 -23 -11 c-32 -17 -35 -35 -4 -29 31 5 36 14 47 72 16
81 15 94 -9 105 -31 13 -29 33 2 27 15 -2 25 0 25 7 0 11 -20 15 -48 12 -8 -1
-20 6 -27 15 -11 16 -13 14 -17 -14z"/>
<path d="M713 1078 c3 -13 9 -33 12 -45 10 -32 -12 -30 -27 2 -6 14 -15 25
-20 25 -15 0 -21 -31 -9 -43 15 -15 14 -40 -1 -31 -18 12 47 -79 81 -110 28
-26 31 -28 31 -10 0 11 -7 30 -16 43 -13 18 -18 20 -25 10 -6 -10 -9 -8 -9 9
0 15 -6 22 -20 22 -11 0 -20 4 -20 8 0 12 44 52 58 52 17 0 15 -20 -3 -26 -8
-4 -15 -11 -15 -17 0 -7 4 -7 12 1 16 16 28 15 28 -3 0 -8 9 -15 20 -15 12 0
20 -7 20 -17 1 -20 16 -41 45 -63 20 -15 20 -14 1 8 -31 36 -13 35 22 -1 l32
-33 -26 -14 c-24 -14 -28 -13 -50 13 -13 16 -24 35 -24 43 0 8 -4 12 -10 9
-16 -10 -12 -20 32 -74 43 -52 107 -104 167 -135 17 -9 31 -23 31 -31 0 -8 9
-15 20 -15 16 0 20 7 20 32 0 24 -3 29 -11 21 -9 -9 -20 -7 -45 5 -19 8 -34
19 -34 23 0 4 -22 21 -50 39 -27 18 -50 38 -50 45 0 27 21 26 48 -3 15 -16 39
-32 53 -35 14 -4 43 -18 64 -32 40 -28 78 -28 55 0 -7 8 -21 15 -31 15 -18 0
-42 18 -121 93 -16 15 -33 27 -37 27 -4 0 -24 18 -45 40 -20 22 -41 40 -46 40
-5 0 -12 11 -16 25 -3 14 -22 39 -41 56 -26 23 -33 33 -24 42 17 17 13 27 -10
27 -17 0 -20 -5 -16 -22z"/>
<path d="M2602 1089 c2 -7 12 -17 21 -23 13 -8 20 -7 27 4 11 17 12 15 -23 24
-21 5 -28 3 -25 -5z"/>
<path d="M323 1070 c-35 -14 -28 -31 7 -19 17 6 30 15 30 20 0 11 -8 11 -37
-1z"/>
<path d="M1748 1007 c-36 -23 -69 -51 -72 -61 -5 -19 -6 -19 -23 -3 -15 13
-26 14 -58 7 -22 -5 -52 -11 -67 -15 -16 -3 -28 -11 -28 -19 0 -7 -10 -18 -22
-24 l-23 -11 22 0 c12 -1 25 4 28 9 9 14 42 12 48 -2 4 -9 6 -8 6 3 1 19 72
44 82 28 8 -13 98 31 99 49 0 6 4 12 9 12 5 0 11 -6 14 -12 3 -10 10 -8 25 5
21 19 47 78 34 76 -4 -1 -37 -20 -74 -42z"/>
<path d="M348 1031 c-24 -5 -25 -8 -13 -24 11 -16 16 -16 34 -5 36 22 24 38
-21 29z"/>
<path d="M1140 1025 c0 -27 39 -57 66 -51 17 5 24 2 24 -9 0 -14 12 -20 34
-16 5 1 17 -6 27 -15 10 -9 23 -13 29 -9 7 4 15 3 19 -2 9 -14 108 -26 116
-14 8 14 -20 27 -89 41 -58 12 -181 64 -192 81 -9 15 -34 10 -34 -6z"/>
<path d="M2715 1019 c-9 -14 -7 -15 35 -24 l35 -7 -19 21 c-21 23 -41 27 -51
10z"/>
<path d="M880 1014 c0 -15 23 -45 42 -55 18 -10 17 -6 -7 25 -26 35 -35 42
-35 30z"/>
<path d="M2555 979 c-8 -12 11 -29 32 -29 12 0 28 19 22 24 -13 12 -48 15 -54
5z"/>
<path d="M2366 906 c-30 -40 -32 -46 -11 -46 8 0 15 5 15 12 0 6 9 22 21 34
11 12 16 25 11 28 -5 3 -22 -10 -36 -28z"/>
<path d="M2557 900 c-12 -33 -27 -40 -27 -13 0 16 -1 16 -16 1 -9 -9 -13 -21
-10 -27 12 -18 43 -12 58 12 22 33 29 57 17 57 -6 0 -16 -13 -22 -30z"/>
<path d="M388 913 c-19 -5 -25 -33 -8 -33 6 0 10 5 10 10 0 6 6 10 14 10 8 0
18 5 21 10 6 10 -6 11 -37 3z"/>
<path d="M557 903 c-12 -12 -7 -33 7 -33 8 0 23 -15 35 -33 28 -45 71 -85 71
-65 0 8 -9 23 -20 33 -11 10 -20 21 -20 25 0 14 -67 80 -73 73z"/>
<path d="M407 883 c-4 -3 -7 -16 -6 -27 0 -12 3 -15 6 -8 2 6 11 12 19 12 8 0
14 7 14 15 0 15 -21 21 -33 8z"/>
<path d="M1442 833 c-36 -44 -29 -54 31 -51 47 3 52 5 55 29 2 19 -3 28 -23
37 -36 16 -38 16 -63 -15z m68 -22 c0 -12 -29 -23 -41 -15 -18 10 -9 24 16 24
14 0 25 -4 25 -9z"/>
<path d="M445 830 c-3 -11 -11 -20 -16 -20 -5 0 -9 -4 -9 -10 0 -16 19 -12 41
9 12 11 18 24 14 30 -10 17 -23 13 -30 -9z"/>
<path d="M2461 809 c-27 -37 -18 -55 9 -19 17 22 26 50 17 50 -2 0 -13 -14
-26 -31z"/>
<path d="M2041 785 c-24 -19 -47 -35 -52 -35 -8 0 -41 -61 -36 -67 8 -7 57 39
57 54 0 10 6 13 16 9 18 -7 54 10 54 26 0 6 -6 5 -17 -3 -14 -12 -16 -12 -11
1 2 8 17 16 32 18 15 2 26 8 23 15 -7 21 -22 17 -66 -18z"/>
<path d="M1107 783 c-13 -13 -7 -21 13 -16 14 4 20 0 20 -11 0 -9 5 -16 10
-16 6 0 10 5 10 11 0 5 4 8 9 4 5 -3 12 -1 16 5 10 17 -63 39 -78 23z"/>
<path d="M326 743 c11 -52 14 -57 26 -45 8 8 8 19 -2 41 -16 38 -32 41 -24 4z"/>
<path d="M2616 748 c-9 -12 -12 -25 -8 -29 12 -12 49 -15 50 -4 0 6 -6 9 -14
7 -11 -2 -13 3 -8 22 8 32 0 33 -20 4z"/>
<path d="M515 740 c-8 -13 4 -32 18 -27 16 5 17 37 2 37 -8 0 -17 -4 -20 -10z"/>
<path d="M2531 646 c-29 -30 -50 -59 -47 -65 9 -14 73 -15 81 -1 6 10 -7 14
-32 11 -21 -3 -15 14 18 45 34 32 54 64 42 64 -5 0 -33 -24 -62 -54z"/>
<path d="M357 684 c-8 -8 21 -44 35 -44 4 0 8 5 8 11 0 5 -5 7 -11 4 -6 -4 -9
0 -7 10 3 19 -13 30 -25 19z"/>
<path d="M1303 678 c-19 -32 11 -108 43 -108 19 0 44 29 44 51 0 28 -19 23
-26 -6 -4 -17 -13 -25 -28 -25 -19 1 -20 2 -4 14 14 10 15 15 5 25 -9 9 -9 14
2 21 12 7 12 11 2 24 -16 19 -27 20 -38 4z"/>
<path d="M410 677 c0 -5 12 -24 26 -43 15 -19 22 -34 16 -34 -6 0 -14 5 -17
10 -5 8 -11 7 -21 -1 -10 -8 -11 -15 -4 -24 8 -10 4 -14 -15 -19 -22 -6 -36
-26 -17 -26 4 0 8 -12 9 -26 0 -15 9 -34 19 -43 17 -15 17 -15 5 2 -26 34 11
19 44 -19 31 -34 33 -35 50 -18 17 18 17 19 -2 24 -31 8 -73 46 -73 67 0 11
11 30 25 43 18 17 22 27 15 39 -15 26 -59 77 -60 68z"/>
<path d="M2230 620 c0 -13 -7 -20 -19 -20 -10 0 -21 -7 -25 -15 -3 -8 -12 -15
-20 -15 -8 0 -26 -13 -39 -30 l-25 -30 26 -30 c15 -16 30 -30 34 -30 16 0 7
30 -12 42 -27 17 -25 23 13 47 49 30 87 68 87 86 0 8 -4 15 -10 15 -5 0 -10
-9 -10 -20z"/>
<path d="M2306 632 c-10 -17 5 -42 25 -42 24 0 24 12 0 34 -11 10 -22 13 -25
8z"/>
<path d="M1175 615 c34 -14 123 -31 113 -20 -6 7 -115 35 -133 34 -5 0 4 -6
20 -14z"/>
<path d="M1022 608 c-15 -20 -24 -58 -14 -58 6 0 19 16 31 35 15 26 17 35 7
35 -8 0 -18 -6 -24 -12z"/>
<path d="M1703 603 c-50 -17 -58 -36 -11 -22 18 5 45 9 60 9 30 0 37 14 12 24
-9 3 -16 6 -17 5 -1 0 -21 -7 -44 -16z"/>
<path d="M2265 590 c-7 -12 11 -40 26 -40 14 0 10 26 -5 39 -10 9 -16 9 -21 1z"/>
<path d="M1850 575 c0 -8 -9 -15 -20 -15 -14 0 -18 -5 -13 -17 5 -14 1 -15
-26 -10 -20 4 -67 -1 -122 -14 -49 -12 -93 -19 -97 -15 -10 10 19 26 48 26 32
0 202 41 196 47 -4 4 -56 -5 -161 -28 -22 -4 -56 -8 -76 -9 l-35 0 4 -59 4
-59 -43 -16 -44 -16 85 6 c47 3 110 10 140 17 49 10 51 12 23 15 -18 2 -33 7
-33 13 0 5 -4 9 -10 9 -5 0 -10 -6 -10 -14 0 -17 -22 -26 -66 -26 -30 0 -34 3
-34 25 0 27 6 29 95 40 54 7 203 51 221 66 15 13 6 49 -12 49 -8 0 -14 -7 -14
-15z m-90 -54 c0 -5 -10 -11 -22 -14 -13 -2 -31 -8 -40 -12 -11 -4 -18 -3 -18
4 0 6 15 15 33 20 43 12 47 13 47 2z"/>
<path d="M2571 560 c-18 -16 -27 -18 -38 -9 -11 10 -13 6 -11 -22 2 -24 -1
-33 -11 -31 -19 4 -41 -17 -41 -39 0 -12 -5 -16 -15 -13 -9 4 -15 0 -15 -10 0
-24 24 -19 61 13 18 16 37 28 40 25 4 -2 11 6 14 18 4 13 15 32 25 43 39 46
34 60 -9 25z"/>
<path d="M2220 546 c0 -7 6 -19 14 -25 19 -16 32 5 16 24 -16 19 -30 19 -30 1z"/>
<path d="M844 528 c-4 -6 -3 -13 3 -15 6 -2 18 -9 27 -16 16 -11 16 -15 1 -50
-15 -36 -13 -57 5 -57 4 0 12 17 17 37 4 20 15 39 22 41 10 3 12 -2 8 -19 -3
-12 -1 -29 5 -37 10 -11 8 -16 -5 -24 -10 -5 -15 -13 -12 -19 11 -17 24 -9 41
22 15 30 15 31 -1 25 -11 -4 -15 -2 -13 6 3 7 13 15 23 17 16 3 17 -2 11 -45
-6 -44 -5 -46 9 -29 8 11 15 28 15 39 0 22 14 20 110 -17 51 -20 64 -29 62
-44 -8 -40 -7 -58 3 -58 5 0 9 7 8 15 -2 8 4 23 11 33 14 18 20 18 133 4 64
-9 119 -20 121 -26 6 -17 52 -13 58 4 4 10 20 15 49 15 39 0 44 -3 54 -31 6
-17 15 -28 21 -24 7 4 7 13 -1 26 -6 12 -9 23 -6 25 2 2 46 15 98 28 52 14
130 37 175 53 81 29 104 31 104 10 1 -17 40 -65 40 -49 0 24 -29 69 -55 86
-14 9 -23 21 -20 26 9 14 4 13 -77 -19 -40 -16 -74 -36 -77 -43 -3 -10 -1 -11
10 0 7 6 19 12 26 12 8 0 32 8 53 19 37 18 50 18 50 0 0 -20 -266 -88 -405
-105 -33 -4 -63 -11 -66 -16 -4 -6 -18 -4 -35 5 -27 13 -160 37 -230 42 -17 1
-35 4 -40 7 -24 14 -193 78 -207 78 -8 0 -17 3 -19 8 -1 4 -24 22 -50 40 -33
23 -49 29 -54 20z"/>
<path d="M2177 524 c-8 -9 11 -44 23 -44 6 0 10 6 10 14 0 16 -24 38 -33 30z"/>
<path d="M559 496 c-24 -25 -37 -76 -19 -76 5 0 10 5 10 10 0 21 32 8 96 -40
36 -28 69 -48 73 -45 3 4 -5 16 -19 27 -14 11 -42 35 -63 53 -24 22 -43 32
-54 28 -13 -5 -15 -2 -10 11 4 10 7 22 7 27 0 17 20 9 57 -25 38 -33 117 -86
129 -86 6 0 -143 115 -173 133 -6 4 -21 -4 -34 -17z"/>
<path d="M795 500 c-7 -24 -23 -26 -31 -5 -7 16 -34 21 -34 6 0 -10 69 -56 74
-50 2 2 6 16 10 31 7 31 -10 48 -19 18z"/>
<path d="M2335 456 c-32 -31 -61 -56 -64 -56 -4 0 -14 -9 -24 -20 -9 -11 -24
-20 -33 -20 -17 0 -15 -21 3 -27 6 -2 37 19 67 46 61 55 68 58 86 37 9 -12 5
-19 -27 -39 -37 -24 -82 -67 -70 -67 16 0 96 63 125 99 l32 40 -19 32 -19 31
-57 -56z m62 -16 c-6 -11 -15 -20 -19 -20 -12 0 -9 25 4 38 17 17 29 4 15 -18z"/>
<path d="M833 463 c-15 -32 -16 -43 -5 -43 9 0 32 44 32 60 0 19 -15 9 -27
-17z"/>
<path d="M1174 405 c11 -8 31 -15 45 -14 24 0 23 2 -9 14 -46 18 -59 18 -36 0z"/>
<path d="M1725 405 c-22 -7 -31 -13 -20 -13 11 0 36 6 55 13 45 17 17 18 -35
0z"/>
<path d="M1016 378 c-18 -25 -21 -48 -7 -48 13 0 41 59 31 65 -5 3 -16 -5 -24
-17z"/>
<path d="M1896 392 c-7 -12 4 -52 15 -52 12 0 12 47 0 55 -5 3 -12 2 -15 -3z"/>
<path d="M1944 389 c-3 -6 -2 -15 2 -19 12 -12 38 5 30 19 -9 14 -23 14 -32 0z"/>
<path d="M1064 355 c-15 -23 -15 -28 -3 -36 22 -14 26 -11 32 19 8 39 -8 49
-29 17z"/>
<path d="M1498 373 c-27 -2 -48 -8 -48 -13 0 -5 12 -7 28 -4 15 2 54 9 87 13
64 9 26 11 -67 4z"/>
<path d="M1846 361 c-3 -5 1 -14 9 -21 9 -7 13 -21 10 -31 -4 -11 -2 -19 5
-19 18 0 23 30 10 56 -14 25 -25 30 -34 15z"/>
<path d="M780 348 c0 -9 -8 -21 -17 -27 -16 -8 -14 -11 10 -22 28 -13 36 -34
15 -41 -8 -3 -6 -14 7 -36 22 -37 65 -45 65 -13 0 11 5 23 10 26 6 3 10 14 10
23 -1 13 -6 10 -21 -11 -19 -24 -49 -37 -49 -20 0 4 9 26 21 49 l20 43 34 -17
c27 -13 35 -23 35 -45 0 -22 7 -31 35 -43 39 -16 69 -19 46 -5 -8 5 -11 16 -7
27 6 16 8 16 23 1 16 -15 16 -19 0 -52 -21 -44 -21 -51 -3 -36 12 10 19 8 35
-8 21 -21 94 -45 114 -38 14 5 -54 37 -78 37 -22 0 -30 27 -17 55 8 18 17 23
29 18 10 -3 15 -3 11 2 -10 10 -108 44 -130 45 -10 0 -18 4 -18 9 0 14 -100
61 -128 61 -14 0 -31 8 -38 18 -12 16 -13 16 -14 0z"/>
<path d="M1112 336 c-7 -17 -7 -27 1 -35 17 -17 29 -13 22 8 -3 11 -1 22 5 26
11 7 4 25 -9 25 -4 0 -13 -11 -19 -24z"/>
<path d="M1969 340 c-13 -10 -21 -19 -17 -20 14 0 58 23 58 32 0 14 -16 9 -41
-12z"/>
<path d="M2133 336 c-25 -12 -30 -45 -11 -64 16 -16 28 -15 28 3 0 9 9 15 25
15 28 0 28 0 15 34 -10 28 -22 30 -57 12z"/>
<path d="M1750 326 c0 -8 7 -17 16 -20 21 -8 26 -3 18 18 -8 20 -34 21 -34 2z"/>
<path d="M1214 321 c-2 -2 -4 -14 -3 -25 0 -12 3 -15 6 -8 3 7 23 12 49 12 25
0 43 4 40 9 -6 9 -84 20 -92 12z"/>
<path d="M1708 325 c-8 -8 21 -65 33 -65 5 0 9 6 9 14 0 18 -33 59 -42 51z"/>
<path d="M1333 308 c-20 -25 -25 -58 -10 -58 8 0 17 14 21 32 7 36 3 44 -11
26z"/>
<path d="M1660 311 c0 -5 7 -21 15 -37 11 -22 15 -25 20 -12 7 18 -10 58 -25
58 -6 0 -10 -4 -10 -9z"/>
<path d="M1457 274 c-17 -17 -5 -34 24 -34 24 0 30 4 27 18 -3 17 -38 29 -51
16z"/>
<path d="M1526 248 c3 -13 7 -24 8 -25 0 -1 13 1 29 4 18 4 27 12 27 24 0 15
-7 19 -36 19 -32 0 -35 -2 -28 -22z"/>
<path d="M2092 218 c-6 -8 -7 -19 -3 -27 7 -10 13 -11 30 -1 12 6 20 17 18 23
-5 17 -32 20 -45 5z"/>
<path d="M882 198 c-15 -15 -16 -38 -2 -38 6 0 10 5 10 10 0 17 28 11 39 -7 9
-15 12 -16 20 -4 7 10 3 20 -14 33 -27 21 -37 22 -53 6z"/>
<path d="M1134 194 c3 -9 6 -17 6 -20 0 -2 12 2 26 8 23 11 24 13 7 19 -31 13
-46 10 -39 -7z"/>
<path d="M2008 192 c-50 -22 -48 -32 4 -21 47 11 58 16 58 30 0 13 -19 10 -62
-9z"/>
<path d="M1210 165 c0 -8 -8 -15 -18 -15 -33 0 -33 -13 -1 -27 38 -16 59 -4
59 33 0 17 -6 24 -20 24 -11 0 -20 -7 -20 -15z"/>
<path d="M1280 155 c0 -14 3 -15 15 -5 17 14 55 4 55 -16 0 -8 -8 -14 -17 -14
-15 0 -14 -2 3 -14 17 -14 20 -12 32 15 11 26 15 29 28 19 10 -9 11 -16 4 -25
-7 -9 -8 -25 -2 -47 8 -32 10 -33 60 -35 28 -1 54 3 57 8 4 5 -14 9 -39 9
l-46 0 0 45 0 45 50 0 50 0 0 -60 c0 -33 4 -60 10 -60 6 0 10 7 10 15 0 8 5
15 11 15 6 0 8 8 6 18 -19 67 -18 72 7 72 19 0 24 -4 19 -16 -4 -12 -2 -15 8
-12 8 3 15 14 15 26 1 21 -3 22 -76 22 -42 0 -118 3 -168 6 -84 6 -92 5 -92
-11z"/>
<path d="M1800 120 c-8 -5 -10 -10 -5 -10 6 0 20 -3 33 -6 16 -5 22 -2 22 10
0 18 -27 21 -50 6z"/>
<path d="M1643 103 c-15 -3 -23 -12 -23 -24 0 -18 2 -19 30 -4 27 14 42 37 23
34 -5 -1 -18 -4 -30 -6z"/>
<path d="M1242 89 c6 -17 67 -24 81 -10 8 8 6 11 -5 11 -8 0 -30 3 -48 7 -25
5 -32 3 -28 -8z"/>
</g>
</svg>
