<svg
    xmlns="http://www.w3.org/2000/svg"  viewBox="0 0 20 20" width="100px" height="100px"
    >
    <path
    d="M2986 4816c-12-14-50-93-86-176-70-160-148-334-242-534-32-68-58-129-58-134 0-6-40-93-90-194-114-232-115-228 45-155 74 33 254 109 400 169 145 60 331 139 413 177l149 68-138 306c-222 492-218 486-301 493-41 3-80-5-92-20zm134-277c0-12 11-15 24-7 13 9 3-14-23-50-25-36-67-75-93-86-26-12-42-29-37-37 12-21 69-11 86 14 18 27 100 47 113 27 5-8-4-27-21-41-56-46-80-108-36-90 128 50 144 3 34-100l-73-69 96 13c71 10 92 7 82-10-8-13-26-23-39-23-14 0-36-11-49-24-29-29-84-39-84-14 0 10 16 19 35 19 25 1 21 7-13 21-39 16-58 10-100-28-84-75-189-147-237-162-69-22-58 43 15 84 33 19 60 41 60 49 0 15 74 95 88 95s132 115 132 129c0 7-70-40-155-104-208-158-211-159-182-97 12 28 31 46 40 40s17-2 17 8 21 41 47 69c104 113 173 247 77 151-19-19-29-19-44 0-11 13-15 20-8 15s54 44 105 109c86 110 143 149 143 99zM3445 3791c-79-38-227-100-329-139-198-74-644-264-752-320-63-33-166-197-140-223 6-6 64 11 129 38 183 77 538 187 747 233 287 62 608 143 622 158 7 6-20 82-60 167l-72 155-145-69zM3590 3290c-99-26-232-57-295-70-142-28-145-1 36-363 83-166 147-313 142-328-8-19-110-27-427-33-466-9-662-53-1054-234-198-92-171-50-424-636-108-250-128-236 339-236h397l117 250c160 341 111 318 695 321l486 3 58-117c32-64 93-193 136-287l77-170 379 5c208 3 389 5 403 5 53 0 39 39-230 610-78 165-193 417-256 560s-162 357-220 475-102 215-97 215 0 18-12 40c-26 48-24 48-250-10zm210-94c0-79-388-375-433-330-24 24 38 175 88 215 124 97 345 171 345 115zm62-221c1-25 3-72 5-105s14-72 28-86c66-70-30-248-243-451-205-196-395-292-450-226-14 17-38 26-53 20s-43 4-61 23c-23 22-48 28-76 19-23-8-91-14-152-13-64 1-115-8-124-22-12-18-15-18-16 1 0 14-10 25-21 25-12 0-16-9-9-20 7-12-2-14-23-6s-26 16-11 21c13 5 24 17 24 28s-54-10-120-46c-66-37-120-74-120-83s7-12 16-6c9 5 8-40-3-100l-20-111-240-173c-132-96-252-181-266-190-17-10-42 3-70 36-47 53-66 110-37 110 9 0 56 38 103 84 93 88 55 73-111-48-123-89-143-69-52 54 45 61 72 110 60 110-29 0 26 103 100 187 32 37 54 72 48 78s0 18 14 26c15 10 19 7 10-8-22-35 59-28 88 7 25 31 81 60 228 119 108 44 109 28 2-51-125-93-218-178-195-178 11 0 42 20 70 45 94 83 225 165 252 159 15-4 22 2 15 13-13 20 146 92 164 74 6-6 21-1 35 10 33 28 229 45 229 21 0-11-16-29-35-40-29-17-30-21-4-21 17-1 43 10 58 24 16 15 22 16 14 2-7-12 0-33 16-46 23-19 26-15 16 23-6 25-4 40 5 32 8-8 43-3 78 12 39 16 80 20 107 10 32-12 66-4 120 27 64 37 71 38 46 7-16-20-78-64-136-97-59-33-103-64-97-69 5-5 50 14 100 44 50 29 101 47 114 38 15-9 19-6 10 9-12 19 3 28 33 22 114-24 300 199 230 275l-41 45 81 88c45 49 115 139 156 201 81 121 108 137 111 67zm127-437c-5-8 26-31 70-53l78-38-44-86c-55-110-234-274-363-334l-100-46-17 45c-42 108 21 283 93 259 10-4 11 3 4 15-7 11-2 20 10 20s17 9 10 20c-11 18 16 29 56 22 10-2 12 6 5 16-6 11 2 27 18 36 17 10 33 42 35 72 4 42 13 51 40 43 20-7 36-4 36 5 0 10 17 17 39 17 21 0 34-6 30-13zm211-354c0-27-125-137-195-172-123-62-164-73-152-41 6 16 17 29 25 29 7 0 41 25 75 57 143 130 247 184 247 127zm118-280c-3-41-1-84 5-95 5-10 9-41 9-69-1-27 6-56 15-63 10-6 11-32 3-57-11-34-19-38-31-19-12 20-22 21-44 3-21-17-34-17-51 0s-32 16-59-7c-38-32-40-32-149-10-55 11-71 22-63 45 7 16 4 27-6 24-23-8-127 74-127 100 0 11 70 44 155 73 85 28 191 73 235 99 108 65 114 64 108-24zm-2032-352c-36-47-159-106-180-85-11 12 170 133 199 133 9 0 1-21-19-48z"
    transform="matrix(.05 0 0 -.05 0 300)"
    fill="currentColor"
    />
    <path
    d="M2650 3051c-253-86-439-159-520-205-42-23-204-358-184-379 7-6 89 22 184 62 95 41 286 103 425 138l252 64 86 189c46 105 85 197 86 205 2 30-74 13-329-74z"
    transform="matrix(.05 0 0 -.05 0 300)"
    fill="currentColor"
    />
</svg>